SplineFontDB: 3.2
FontName: malleus
FullName: malleus
FamilyName: malleus
Weight: Medium
Copyright: 
Version: 001.000
ItalicAngle: 0
UnderlinePosition: -151
UnderlineWidth: 50
Ascent: 768
Descent: 256
InvalidEm: 0
sfntRevision: 0x00010000
LayerCount: 2
Layer: 0 1 "Back" 1
Layer: 1 1 "Fore" 0
XUID: [1021 535 -17524224 5212316]
StyleMap: 0x0040
FSType: 0
OS2Version: 1
OS2_WeightWidthSlopeOnly: 0
OS2_UseTypoMetrics: 0
CreationTime: 1280473793
ModificationTime: 1632598405
PfmFamily: 17
TTFWeight: 500
TTFWidth: 5
LineGap: 92
VLineGap: 0
Panose: 2 0 6 3 0 0 0 0 0 0
OS2TypoAscent: 768
OS2TypoAOffset: 0
OS2TypoDescent: -256
OS2TypoDOffset: 0
OS2TypoLinegap: 92
OS2WinAscent: 683
OS2WinAOffset: 0
OS2WinDescent: 128
OS2WinDOffset: 0
HheadAscent: 683
HheadAOffset: 0
HheadDescent: -128
HheadDOffset: 0
OS2SubXSize: 665
OS2SubYSize: 716
OS2SubXOff: 0
OS2SubYOff: 143
OS2SupXSize: 665
OS2SupYSize: 716
OS2SupXOff: 0
OS2SupYOff: 491
OS2StrikeYSize: 51
OS2StrikeYPos: 265
OS2Vendor: '2ttf'
OS2CodePages: 00000093.00000000
OS2UnicodeRanges: 00000007.00010002.00000000.00000000
MarkAttachClasses: 1
DEI: 91125
TtTable: prep
PUSHW_1
 511
SCANCTRL
PUSHB_1
 1
SCANTYPE
SVTCA[y-axis]
MPPEM
PUSHB_1
 8
LT
IF
PUSHB_2
 1
 1
INSTCTRL
EIF
PUSHB_2
 70
 6
CALL
IF
POP
PUSHB_1
 16
EIF
MPPEM
PUSHB_1
 20
GT
IF
POP
PUSHB_1
 128
EIF
SCVTCI
PUSHB_1
 20
CALL
EndTTInstrs
TtTable: fpgm
PUSHB_1
 0
FDEF
PUSHB_1
 0
SZP0
MPPEM
PUSHB_1
 42
LT
IF
PUSHB_1
 74
SROUND
EIF
PUSHB_1
 0
SWAP
MIAP[rnd]
RTG
PUSHB_1
 6
CALL
IF
RTDG
EIF
MPPEM
PUSHB_1
 42
LT
IF
RDTG
EIF
DUP
MDRP[rp0,rnd,grey]
PUSHB_1
 1
SZP0
MDAP[no-rnd]
RTG
ENDF
PUSHB_1
 1
FDEF
DUP
MDRP[rp0,min,white]
PUSHB_1
 12
CALL
ENDF
PUSHB_1
 2
FDEF
MPPEM
GT
IF
RCVT
SWAP
EIF
POP
ENDF
PUSHB_1
 3
FDEF
ROUND[Black]
RTG
DUP
PUSHB_1
 64
LT
IF
POP
PUSHB_1
 64
EIF
ENDF
PUSHB_1
 4
FDEF
PUSHB_1
 6
CALL
IF
POP
SWAP
POP
ROFF
IF
MDRP[rp0,min,rnd,black]
ELSE
MDRP[min,rnd,black]
EIF
ELSE
MPPEM
GT
IF
IF
MIRP[rp0,min,rnd,black]
ELSE
MIRP[min,rnd,black]
EIF
ELSE
SWAP
POP
PUSHB_1
 5
CALL
IF

StartChar: .notdef
Encoding: 65536 -1 0
Width: 373
Flags: W
LayerCount: 2
Fore
SplineSet
35 0 m 1,0,-1
 35 683 l 1,1,-1
 307 683 l 1,2,-1
 307 0 l 1,3,-1
 35 0 l 1,0,-1
68 35 m 1,4,-1
 272 35 l 1,5,-1
 272 648 l 1,6,-1
 68 648 l 1,7,-1
 68 35 l 1,4,-1
EndSplineSet
Validated: 1
EndChar

StartChar: exclam
Encoding: 33 33 4
Width: 192
Flags: W
LayerCount: 2
Fore
SplineSet
64 0 m 1,0,-1
 64 64 l 1,1,-1
 128 64 l 1,2,-1
 128 0 l 1,3,-1
 64 0 l 1,0,-1
64 128 m 1,4,-1
 64 192 l 1,5,-1
 64 256 l 1,6,-1
 64 320 l 1,7,-1
 64 384 l 1,8,-1
 64 448 l 1,9,-1
 128 448 l 1,10,-1
 128 384 l 1,11,-1
 128 320 l 1,12,-1
 128 256 l 1,13,-1
 128 192 l 1,14,-1
 128 128 l 1,15,-1
 64 128 l 1,4,-1
EndSplineSet
Validated: 1
EndChar

StartChar: quotedbl
Encoding: 34 34 5
Width: 447
Flags: W
LayerCount: 2
Fore
SplineSet
63 320 m 1024,0,-1
63 320 m 1,1,-1
 127 320 l 1,2,-1
 127 256 l 1,3,-1
 63 256 l 1,4,-1
 63 320 l 1,1,-1
127 320 m 1,5,-1
 127 384 l 1,6,-1
 127 448 l 1,7,-1
 191 448 l 1,8,-1
 191 384 l 1,9,-1
 191 320 l 1,10,-1
 127 320 l 1,5,-1
191 320 m 1024,11,-1
255 256 m 1024,12,-1
255 320 m 1,13,-1
 319 320 l 1,14,-1
 319 256 l 1,15,-1
 255 256 l 1,16,-1
 255 320 l 1,13,-1
319 320 m 1,17,-1
 319 384 l 1,18,-1
 319 448 l 1,19,-1
 383 448 l 1,20,-1
 383 384 l 1,21,-1
 383 320 l 1,22,-1
 319 320 l 1,17,-1
EndSplineSet
Validated: 5
EndChar

StartChar: numbersign
Encoding: 35 35 6
Width: 384
Flags: W
LayerCount: 2
Fore
SplineSet
192 0 m 1,0,-1
 192 64 l 1,1,-1
 128 64 l 1,2,-1
 128 0 l 1,3,-1
 64 0 l 1,4,-1
 64 64 l 1,5,-1
 0 64 l 1,6,-1
 0 128 l 1,7,-1
 64 128 l 1,8,-1
 64 192 l 1,9,-1
 64 256 l 1,10,-1
 0 256 l 1,11,-1
 0 320 l 1,12,-1
 64 320 l 1,13,-1
 64 384 l 1,14,-1
 128 384 l 1,15,-1
 128 320 l 1,16,-1
 192 320 l 1,17,-1
 192 384 l 1,18,-1
 256 384 l 1,19,-1
 256 320 l 1,20,-1
 320 320 l 1,21,-1
 320 256 l 1,22,-1
 256 256 l 1,23,-1
 256 192 l 1,24,-1
 256 128 l 1,25,-1
 320 128 l 1,26,-1
 320 64 l 1,27,-1
 256 64 l 1,28,-1
 256 0 l 1,29,-1
 192 0 l 1,0,-1
192 128 m 1,30,-1
 192 192 l 1,31,-1
 192 256 l 1,32,-1
 128 256 l 1,33,-1
 128 192 l 1,34,-1
 128 128 l 1,35,-1
 192 128 l 1,30,-1
EndSplineSet
Validated: 1
EndChar

StartChar: dollar
Encoding: 36 36 7
Width: 384
Flags: W
LayerCount: 2
Fore
SplineSet
128 0 m 1,0,-1
 128 64 l 1,1,-1
 64 64 l 1,2,-1
 0 64 l 1,3,-1
 0 128 l 1,4,-1
 64 128 l 1,5,-1
 128 128 l 1,6,-1
 128 192 l 1,7,-1
 64 192 l 1,8,-1
 64 256 l 1,9,-1
 0 256 l 1,10,-1
 0 320 l 1,11,-1
 64 320 l 1,12,-1
 64 384 l 1,13,-1
 128 384 l 1,14,-1
 128 448 l 1,15,-1
 192 448 l 1,16,-1
 192 384 l 1,17,-1
 256 384 l 1,18,-1
 320 384 l 1,19,-1
 320 320 l 1,20,-1
 256 320 l 1,21,-1
 192 320 l 1,22,-1
 192 256 l 1,23,-1
 256 256 l 1,24,-1
 256 192 l 1,25,-1
 320 192 l 1,26,-1
 320 128 l 1,27,-1
 256 128 l 1,28,-1
 256 192 l 1,29,-1
 192 192 l 1,30,-1
 192 128 l 1,31,-1
 256 128 l 1,32,-1
 256 64 l 1,33,-1
 192 64 l 1,34,-1
 192 0 l 1,35,-1
 128 0 l 1,0,-1
128 256 m 1,36,-1
 128 320 l 1,37,-1
 64 320 l 1,38,-1
 64 256 l 1,39,-1
 128 256 l 1,36,-1
EndSplineSet
Validated: 5
EndChar

StartChar: percent
Encoding: 37 37 8
Width: 576
Flags: W
LayerCount: 2
Fore
SplineSet
512 128 m 1024,0,-1
512 128 m 1024,1,-1
512 128 m 1024,2,-1
128 256 m 1024,3,-1
128 256 m 1,4,-1
 128 320 l 1,5,-1
 192 320 l 1,6,-1
 192 256 l 1,7,-1
 128 256 l 1,4,-1
192 320 m 1024,8,-1
192 320 m 1,9,-1
 192 384 l 1,10,-1
 256 384 l 1,11,-1
 256 320 l 1,12,-1
 192 320 l 1,9,-1
128 384 m 1024,13,-1
128 384 m 1,14,-1
 128 448 l 1,15,-1
 192 448 l 1,16,-1
 192 384 l 1,17,-1
 128 384 l 1,14,-1
192 448 m 1024,18,-1
64 320 m 1,19,-1
 64 384 l 1,20,-1
 128 384 l 1,21,-1
 128 320 l 1,22,-1
 64 320 l 1,19,-1
384 0 m 1024,23,-1
384 0 m 1,24,-1
 384 64 l 1,25,-1
 448 64 l 1,26,-1
 448 0 l 1,27,-1
 384 0 l 1,24,-1
448 64 m 1024,28,-1
448 64 m 1,29,-1
 448 128 l 1,30,-1
 512 128 l 1,31,-1
 512 64 l 1,32,-1
 448 64 l 1,29,-1
384 128 m 1024,33,-1
384 128 m 1,34,-1
 384 192 l 1,35,-1
 448 192 l 1,36,-1
 448 128 l 1,37,-1
 384 128 l 1,34,-1
448 192 m 1024,38,-1
320 64 m 1,39,-1
 320 128 l 1,40,-1
 384 128 l 1,41,-1
 384 64 l 1,42,-1
 320 64 l 1,39,-1
320 320 m 1024,43,-1
320 320 m 1,44,-1
 320 384 l 1,45,-1
 384 384 l 1,46,-1
 384 320 l 1,47,-1
 320 320 l 1,44,-1
384 384 m 1024,48,-1
192 64 m 1024,49,-1
192 64 m 1,50,-1
 192 128 l 1,51,-1
 256 128 l 1,52,-1
 256 64 l 1,53,-1
 192 64 l 1,50,-1
256 128 m 1024,54,-1
128 0 m 1,55,-1
 128 64 l 1,56,-1
 192 64 l 1,57,-1
 192 128 l 1,58,-1
 192 64 l 1,59,-1
 192 0 l 1,60,-1
 128 0 l 1,55,-1
192 128 m 1,61,-1
 192 192 l 1,62,-1
 256 192 l 1,63,-1
 256 128 l 1,64,-1
 192 128 l 1,61,-1
256 192 m 1,65,-1
 256 256 l 1,66,-1
 320 256 l 1,67,-1
 320 192 l 1,68,-1
 256 192 l 1,65,-1
320 256 m 1,69,-1
 320 320 l 1,70,-1
 384 320 l 1,71,-1
 384 256 l 1,72,-1
 320 256 l 1,69,-1
384 320 m 1,73,-1
 384 384 l 1,74,-1
 384 448 l 1,75,-1
 448 448 l 1,76,-1
 448 384 l 1,77,-1
 384 384 l 1,78,-1
 384 320 l 1,73,-1
EndSplineSet
Validated: 5
EndChar

StartChar: ampersand
Encoding: 38 38 9
Width: 448
Flags: W
LayerCount: 2
Fore
SplineSet
320 0 m 1,0,-1
 320 64 l 1,1,-1
 384 64 l 1,2,-1
 384 0 l 1,3,-1
 320 0 l 1,0,-1
192 64 m 1,4,-1
 256 64 l 1,5,-1
 256 0 l 1,6,-1
 192 0 l 1,7,-1
 128 0 l 1,8,-1
 64 0 l 1,9,-1
 64 64 l 1,10,-1
 128 64 l 1,11,-1
 192 64 l 1,4,-1
320 64 m 1,12,-1
 256 64 l 1,13,-1
 256 128 l 1,14,-1
 256 192 l 1,15,-1
 320 192 l 1,16,-1
 320 128 l 1,17,-1
 320 64 l 1,12,-1
64 64 m 1,18,-1
 0 64 l 1,19,-1
 0 128 l 1,20,-1
 0 192 l 1,21,-1
 64 192 l 1,22,-1
 64 128 l 1,23,-1
 64 64 l 1,18,-1
64 192 m 1,24,-1
 64 256 l 1,25,-1
 64 320 l 1,26,-1
 64 384 l 1,27,-1
 128 384 l 1,28,-1
 128 320 l 1,29,-1
 128 256 l 1,30,-1
 192 256 l 1,31,-1
 192 192 l 1,32,-1
 128 192 l 1,33,-1
 64 192 l 1,24,-1
192 256 m 1,34,-1
 192 320 l 1,35,-1
 192 384 l 1,36,-1
 256 384 l 1,37,-1
 256 320 l 1,38,-1
 256 256 l 1,39,-1
 192 256 l 1,34,-1
192 384 m 1,40,-1
 128 384 l 1,41,-1
 128 448 l 1,42,-1
 192 448 l 1,43,-1
 192 384 l 1,40,-1
EndSplineSet
Validated: 5
EndChar

StartChar: quotesingle
Encoding: 39 39 10
Width: 256
Flags: W
LayerCount: 2
Fore
SplineSet
64 256 m 1024,0,-1
64 320 m 1024,1,-1
64 320 m 1,2,-1
 128 320 l 1,3,-1
 128 256 l 1,4,-1
 64 256 l 1,5,-1
 64 320 l 1,2,-1
128 320 m 1,6,-1
 128 384 l 1,7,-1
 128 448 l 1,8,-1
 192 448 l 1,9,-1
 192 384 l 1,10,-1
 192 320 l 1,11,-1
 128 320 l 1,6,-1
EndSplineSet
Validated: 5
EndChar

StartChar: parenleft
Encoding: 40 40 11
Width: 256
Flags: W
LayerCount: 2
Fore
SplineSet
128 -64 m 1,0,-1
 128 0 l 1,1,-1
 192 0 l 1,2,-1
 192 -64 l 1,3,-1
 128 -64 l 1,0,-1
128 0 m 1,4,-1
 64 0 l 1,5,-1
 64 64 l 1,6,-1
 64 128 l 1,7,-1
 64 192 l 1,8,-1
 64 256 l 1,9,-1
 64 320 l 1,10,-1
 64 384 l 1,11,-1
 128 384 l 1,12,-1
 128 320 l 1,13,-1
 128 256 l 1,14,-1
 128 192 l 1,15,-1
 128 128 l 1,16,-1
 128 64 l 1,17,-1
 128 0 l 1,4,-1
128 384 m 1,18,-1
 128 448 l 1,19,-1
 192 448 l 1,20,-1
 192 384 l 1,21,-1
 128 384 l 1,18,-1
EndSplineSet
Validated: 5
EndChar

StartChar: parenright
Encoding: 41 41 12
Width: 256
Flags: W
LayerCount: 2
Fore
SplineSet
64 -64 m 1,0,-1
 64 0 l 1,1,-1
 128 0 l 1,2,-1
 128 -64 l 1,3,-1
 64 -64 l 1,0,-1
128 0 m 1,4,-1
 128 64 l 1,5,-1
 128 128 l 1,6,-1
 128 192 l 1,7,-1
 128 256 l 1,8,-1
 128 320 l 1,9,-1
 128 384 l 1,10,-1
 192 384 l 1,11,-1
 192 320 l 1,12,-1
 192 256 l 1,13,-1
 192 192 l 1,14,-1
 192 128 l 1,15,-1
 192 64 l 1,16,-1
 192 0 l 1,17,-1
 128 0 l 1,4,-1
128 384 m 1,18,-1
 64 384 l 1,19,-1
 64 448 l 1,20,-1
 128 448 l 1,21,-1
 128 384 l 1,18,-1
EndSplineSet
Validated: 5
EndChar

StartChar: asterisk
Encoding: 42 42 13
Width: 320
Flags: W
LayerCount: 2
Fore
SplineSet
128 320 m 1024,0,-1
128 320 m 1,1,-1
 128 384 l 1,2,-1
 192 384 l 1,3,-1
 192 320 l 1,4,-1
 128 320 l 1,1,-1
128 384 m 1024,5,-1
128 384 m 1,6,-1
 128 448 l 1,7,-1
 192 448 l 1,8,-1
 192 384 l 1,9,-1
 128 384 l 1,6,-1
192 192 m 1,10,-1
 192 256 l 1,11,-1
 256 256 l 1,12,-1
 256 192 l 1,13,-1
 192 192 l 1,10,-1
64 192 m 1,14,-1
 64 256 l 1,15,-1
 128 256 l 1,16,-1
 128 192 l 1,17,-1
 64 192 l 1,14,-1
192 256 m 1,18,-1
 128 256 l 1,19,-1
 128 320 l 1,20,-1
 192 320 l 1,21,-1
 192 256 l 1,18,-1
192 320 m 1,22,-1
 192 384 l 1,23,-1
 256 384 l 1,24,-1
 256 320 l 1,25,-1
 192 320 l 1,22,-1
128 320 m 1,26,-1
 64 320 l 1,27,-1
 64 384 l 1,28,-1
 128 384 l 1,29,-1
 128 320 l 1,26,-1
EndSplineSet
Validated: 5
EndChar

StartChar: plus
Encoding: 43 43 14
Width: 384
Flags: W
LayerCount: 2
Fore
SplineSet
128 64 m 1,0,-1
 128 128 l 1,1,-1
 128 192 l 1,2,-1
 64 192 l 1,3,-1
 0 192 l 1,4,-1
 0 256 l 1,5,-1
 64 256 l 1,6,-1
 128 256 l 1,7,-1
 128 320 l 1,8,-1
 128 384 l 1,9,-1
 192 384 l 1,10,-1
 192 320 l 1,11,-1
 192 256 l 1,12,-1
 256 256 l 1,13,-1
 320 256 l 1,14,-1
 320 192 l 1,15,-1
 256 192 l 1,16,-1
 192 192 l 1,17,-1
 192 128 l 1,18,-1
 192 64 l 1,19,-1
 128 64 l 1,0,-1
EndSplineSet
Validated: 1
EndChar

StartChar: comma
Encoding: 44 44 15
Width: 192
Flags: W
LayerCount: 2
Fore
SplineSet
0 -128 m 1,0,-1
 0 -64 l 1,1,-1
 64 -64 l 1,2,-1
 64 -128 l 1,3,-1
 0 -128 l 1,0,-1
64 -64 m 1024,4,-1
64 -64 m 1024,5,-1
64 -64 m 1,6,-1
 64 0 l 1,7,-1
 128 0 l 1,8,-1
 128 -64 l 1,9,-1
 64 -64 l 1,6,-1
128 0 m 1024,10,-1
128 0 m 1024,11,-1
64 0 m 1,12,-1
 64 64 l 1,13,-1
 128 64 l 1,14,-1
 128 0 l 1,15,-1
 64 0 l 1,12,-1
128 64 m 1024,16,-1
128 64 m 1024,17,-1
EndSplineSet
Validated: 5
EndChar

StartChar: hyphen
Encoding: 45 45 16
Width: 449
Flags: W
LayerCount: 2
Fore
SplineSet
321 192 m 1,0,-1
 385 192 l 1,1,-1
 385 128 l 1,2,-1
 321 128 l 1,3,-1
 257 128 l 1,4,-1
 193 128 l 1,5,-1
 129 128 l 1,6,-1
 65 128 l 1,7,-1
 65 192 l 1,8,-1
 129 192 l 1,9,-1
 193 192 l 1,10,-1
 257 192 l 1,11,-1
 321 192 l 1,0,-1
EndSplineSet
Validated: 1
EndChar

StartChar: period
Encoding: 46 46 17
Width: 192
Flags: W
LayerCount: 2
Fore
SplineSet
64 0 m 1,0,-1
 64 64 l 1,1,-1
 128 64 l 1,2,-1
 128 0 l 1,3,-1
 64 0 l 1,0,-1
EndSplineSet
Validated: 1
EndChar

StartChar: slash
Encoding: 47 47 18
Width: 256
Flags: W
LayerCount: 2
Fore
SplineSet
0 0 m 1,0,-1
 0 64 l 1,1,-1
 0 128 l 1,2,-1
 64 128 l 1,3,-1
 64 64 l 1,4,-1
 64 0 l 1,5,-1
 0 0 l 1,0,-1
64 128 m 1,6,-1
 64 192 l 1,7,-1
 64 256 l 1,8,-1
 64 320 l 1,9,-1
 128 320 l 1,10,-1
 128 256 l 1,11,-1
 128 192 l 1,12,-1
 128 128 l 1,13,-1
 64 128 l 1,6,-1
128 320 m 1,14,-1
 128 384 l 1,15,-1
 128 448 l 1,16,-1
 192 448 l 1,17,-1
 192 384 l 1,18,-1
 192 320 l 1,19,-1
 128 320 l 1,14,-1
EndSplineSet
Validated: 5
EndChar

StartChar: zero
Encoding: 48 48 19
Width: 448
Flags: W
LayerCount: 2
Fore
SplineSet
192 192 m 1,0,-1
 192 256 l 1,1,-1
 256 256 l 1,2,-1
 256 192 l 1,3,-1
 192 192 l 1,0,-1
256 64 m 1,4,-1
 320 64 l 1,5,-1
 320 0 l 1,6,-1
 256 0 l 1,7,-1
 192 0 l 1,8,-1
 128 0 l 1,9,-1
 128 64 l 1,10,-1
 192 64 l 1,11,-1
 256 64 l 1,4,-1
320 64 m 1,12,-1
 320 128 l 1,13,-1
 320 192 l 1,14,-1
 320 256 l 1,15,-1
 320 320 l 1,16,-1
 320 384 l 1,17,-1
 384 384 l 1,18,-1
 384 320 l 1,19,-1
 384 256 l 1,20,-1
 384 192 l 1,21,-1
 384 128 l 1,22,-1
 384 64 l 1,23,-1
 320 64 l 1,12,-1
128 64 m 1,24,-1
 64 64 l 1,25,-1
 64 128 l 1,26,-1
 64 192 l 1,27,-1
 64 256 l 1,28,-1
 64 320 l 1,29,-1
 64 384 l 1,30,-1
 128 384 l 1,31,-1
 128 320 l 1,32,-1
 128 256 l 1,33,-1
 128 192 l 1,34,-1
 128 128 l 1,35,-1
 128 64 l 1,24,-1
320 384 m 1,36,-1
 256 384 l 1,37,-1
 192 384 l 1,38,-1
 128 384 l 1,39,-1
 128 448 l 1,40,-1
 192 448 l 1,41,-1
 256 448 l 1,42,-1
 320 448 l 1,43,-1
 320 384 l 1,36,-1
EndSplineSet
Validated: 5
EndChar

StartChar: one
Encoding: 49 49 20
Width: 448
Flags: W
LayerCount: 2
Fore
SplineSet
320 64 m 1,0,-1
 384 64 l 1,1,-1
 384 0 l 1,2,-1
 320 0 l 1,3,-1
 256 0 l 1,4,-1
 192 0 l 1,5,-1
 128 0 l 1,6,-1
 64 0 l 1,7,-1
 64 64 l 1,8,-1
 128 64 l 1,9,-1
 192 64 l 1,10,-1
 192 128 l 1,11,-1
 192 192 l 1,12,-1
 192 256 l 1,13,-1
 192 320 l 1,14,-1
 128 320 l 1,15,-1
 128 384 l 1,16,-1
 192 384 l 1,17,-1
 192 448 l 1,18,-1
 256 448 l 1,19,-1
 256 384 l 1,20,-1
 256 320 l 1,21,-1
 256 256 l 1,22,-1
 256 192 l 1,23,-1
 256 128 l 1,24,-1
 256 64 l 1,25,-1
 320 64 l 1,0,-1
EndSplineSet
Validated: 1
EndChar

StartChar: two
Encoding: 50 50 21
Width: 448
Flags: W
LayerCount: 2
Fore
SplineSet
64 320 m 1,0,-1
 64 384 l 1,1,-1
 128 384 l 1,2,-1
 128 320 l 1,3,-1
 64 320 l 1,0,-1
320 64 m 1,4,-1
 384 64 l 1,5,-1
 384 0 l 1,6,-1
 320 0 l 1,7,-1
 256 0 l 1,8,-1
 192 0 l 1,9,-1
 128 0 l 1,10,-1
 64 0 l 1,11,-1
 64 64 l 1,12,-1
 128 64 l 1,13,-1
 128 128 l 1,14,-1
 192 128 l 1,15,-1
 192 64 l 1,16,-1
 256 64 l 1,17,-1
 320 64 l 1,4,-1
192 128 m 1,18,-1
 192 192 l 1,19,-1
 256 192 l 1,20,-1
 256 128 l 1,21,-1
 192 128 l 1,18,-1
256 192 m 1,22,-1
 256 256 l 1,23,-1
 320 256 l 1,24,-1
 320 192 l 1,25,-1
 256 192 l 1,22,-1
320 256 m 1,26,-1
 320 320 l 1,27,-1
 320 384 l 1,28,-1
 384 384 l 1,29,-1
 384 320 l 1,30,-1
 384 256 l 1,31,-1
 320 256 l 1,26,-1
320 384 m 1,32,-1
 256 384 l 1,33,-1
 192 384 l 1,34,-1
 128 384 l 1,35,-1
 128 448 l 1,36,-1
 192 448 l 1,37,-1
 256 448 l 1,38,-1
 320 448 l 1,39,-1
 320 384 l 1,32,-1
EndSplineSet
Validated: 5
EndChar

StartChar: three
Encoding: 51 51 22
Width: 446
Flags: W
LayerCount: 2
Fore
SplineSet
62 320 m 1,0,-1
 62 384 l 1,1,-1
 126 384 l 1,2,-1
 126 320 l 1,3,-1
 62 320 l 1,0,-1
254 64 m 1,4,-1
 318 64 l 1,5,-1
 318 0 l 1,6,-1
 254 0 l 1,7,-1
 190 0 l 1,8,-1
 126 0 l 1,9,-1
 126 64 l 1,10,-1
 190 64 l 1,11,-1
 254 64 l 1,4,-1
318 64 m 1,12,-1
 318 128 l 1,13,-1
 318 192 l 1,14,-1
 382 192 l 1,15,-1
 382 128 l 1,16,-1
 382 64 l 1,17,-1
 318 64 l 1,12,-1
126 64 m 1,18,-1
 62 64 l 1,19,-1
 62 128 l 1,20,-1
 126 128 l 1,21,-1
 126 64 l 1,18,-1
318 192 m 1,22,-1
 254 192 l 1,23,-1
 190 192 l 1,24,-1
 190 256 l 1,25,-1
 254 256 l 1,26,-1
 318 256 l 1,27,-1
 318 192 l 1,22,-1
318 256 m 1,28,-1
 318 320 l 1,29,-1
 318 384 l 1,30,-1
 382 384 l 1,31,-1
 382 320 l 1,32,-1
 382 256 l 1,33,-1
 318 256 l 1,28,-1
318 384 m 1,34,-1
 254 384 l 1,35,-1
 190 384 l 1,36,-1
 126 384 l 1,37,-1
 126 448 l 1,38,-1
 190 448 l 1,39,-1
 254 448 l 1,40,-1
 318 448 l 1,41,-1
 318 384 l 1,34,-1
EndSplineSet
Validated: 5
EndChar

StartChar: four
Encoding: 52 52 23
Width: 448
Flags: W
LayerCount: 2
Fore
SplineSet
256 0 m 1,0,-1
 256 64 l 1,1,-1
 256 128 l 1,2,-1
 192 128 l 1,3,-1
 128 128 l 1,4,-1
 64 128 l 1,5,-1
 64 192 l 1,6,-1
 64 256 l 1,7,-1
 128 256 l 1,8,-1
 128 320 l 1,9,-1
 192 320 l 1,10,-1
 192 384 l 1,11,-1
 256 384 l 1,12,-1
 256 448 l 1,13,-1
 320 448 l 1,14,-1
 320 384 l 1,15,-1
 320 320 l 1,16,-1
 320 256 l 1,17,-1
 320 192 l 1,18,-1
 384 192 l 1,19,-1
 384 128 l 1,20,-1
 320 128 l 1,21,-1
 320 64 l 1,22,-1
 320 0 l 1,23,-1
 256 0 l 1,0,-1
192 192 m 1,24,-1
 256 192 l 1,25,-1
 256 256 l 1,26,-1
 256 320 l 1,27,-1
 192 320 l 1,28,-1
 192 256 l 1,29,-1
 128 256 l 1,30,-1
 128 192 l 1,31,-1
 192 192 l 1,24,-1
EndSplineSet
Validated: 5
EndChar

StartChar: five
Encoding: 53 53 24
Width: 448
Flags: W
LayerCount: 2
Fore
SplineSet
64 64 m 1,0,-1
 64 128 l 1,1,-1
 128 128 l 1,2,-1
 128 64 l 1,3,-1
 64 64 l 1,0,-1
256 64 m 1,4,-1
 320 64 l 1,5,-1
 320 0 l 1,6,-1
 256 0 l 1,7,-1
 192 0 l 1,8,-1
 128 0 l 1,9,-1
 128 0 l 1,10,-1
 128 64 l 1,11,-1
 128 64 l 1,12,-1
 192 64 l 1,13,-1
 256 64 l 1,4,-1
320 64 m 1,14,-1
 320 128 l 1,15,-1
 320 192 l 1,16,-1
 320 192 l 1,17,-1
 384 192 l 1,18,-1
 384 192 l 1,19,-1
 384 128 l 1,20,-1
 384 64 l 1,21,-1
 320 64 l 1,14,-1
320 192 m 1,22,-1
 256 192 l 1,23,-1
 192 192 l 1,24,-1
 128 192 l 1,25,-1
 64 192 l 1,26,-1
 64 256 l 1,27,-1
 64 384 l 1,28,-1
 64 448 l 1,29,-1
 128 448 l 1,30,-1
 192 448 l 1,31,-1
 256 448 l 1,32,-1
 320 448 l 1,33,-1
 384 448 l 1,34,-1
 384 384 l 1,35,-1
 320 384 l 1,36,-1
 256 384 l 1,37,-1
 192 384 l 1,38,-1
 128 384 l 1,39,-1
 128 256 l 1,40,-1
 192 256 l 1,41,-1
 256 256 l 1,42,-1
 320 256 l 1,43,-1
 320 192 l 1,22,-1
EndSplineSet
Validated: 5
EndChar

StartChar: six
Encoding: 54 54 25
Width: 448
Flags: W
LayerCount: 2
Fore
SplineSet
320 320 m 1,0,-1
 320 384 l 1,1,-1
 384 384 l 1,2,-1
 384 320 l 1,3,-1
 320 320 l 1,0,-1
256 64 m 1,4,-1
 320 64 l 1,5,-1
 320 0 l 1,6,-1
 256 0 l 1,7,-1
 192 0 l 1,8,-1
 128 0 l 1,9,-1
 128 64 l 1,10,-1
 192 64 l 1,11,-1
 256 64 l 1,4,-1
320 64 m 1,12,-1
 320 128 l 1,13,-1
 320 192 l 1,14,-1
 320 192 l 1,15,-1
 384 192 l 1,16,-1
 384 192 l 1,17,-1
 384 128 l 1,18,-1
 384 64 l 1,19,-1
 320 64 l 1,12,-1
128 64 m 1,20,-1
 64 64 l 1,21,-1
 64 128 l 1,22,-1
 64 192 l 1,23,-1
 64 192 l 1,24,-1
 64 256 l 1,25,-1
 64 384 l 1,26,-1
 128 384 l 1,27,-1
 128 256 l 1,28,-1
 192 256 l 1,29,-1
 256 256 l 1,30,-1
 320 256 l 1,31,-1
 320 192 l 1,32,-1
 256 192 l 1,33,-1
 192 192 l 1,34,-1
 128 192 l 1,35,-1
 128 192 l 1,36,-1
 128 128 l 1,37,-1
 128 64 l 1,20,-1
256 448 m 1,38,-1
 320 448 l 1,39,-1
 320 384 l 1,40,-1
 256 384 l 1,41,-1
 192 384 l 1,42,-1
 128 384 l 1,43,-1
 128 448 l 1,44,-1
 192 448 l 1,45,-1
 256 448 l 1,38,-1
EndSplineSet
Validated: 5
EndChar

StartChar: seven
Encoding: 55 55 26
Width: 448
Flags: W
LayerCount: 2
Fore
SplineSet
192 128 m 1,0,-1
 192 192 l 1,1,-1
 256 192 l 1,2,-1
 256 128 l 1,3,-1
 192 128 l 1,0,-1
192 192 m 1024,4,-1
64 320 m 1,5,-1
 64 384 l 1,6,-1
 128 384 l 1,7,-1
 128 320 l 1,8,-1
 64 320 l 1,5,-1
64 384 m 1024,9,-1
192 0 m 1,10,-1
 192 64 l 1,11,-1
 192 128 l 1,12,-1
 256 128 l 1,13,-1
 256 64 l 1,14,-1
 256 0 l 1,15,-1
 192 0 l 1,10,-1
256 128 m 1,16,-1
 256 192 l 1,17,-1
 256 256 l 1,18,-1
 320 256 l 1,19,-1
 320 192 l 1,20,-1
 256 192 l 1,21,-1
 256 128 l 1,16,-1
320 256 m 1,22,-1
 320 320 l 1,23,-1
 320 384 l 1,24,-1
 256 384 l 1,25,-1
 192 384 l 1,26,-1
 128 384 l 1,27,-1
 64 384 l 1,28,-1
 64 448 l 1,29,-1
 128 448 l 1,30,-1
 192 448 l 1,31,-1
 256 448 l 1,32,-1
 320 448 l 1,33,-1
 384 448 l 1,34,-1
 384 384 l 1,35,-1
 384 320 l 1,36,-1
 384 256 l 1,37,-1
 320 256 l 1,22,-1
EndSplineSet
Validated: 5
EndChar

StartChar: eight
Encoding: 56 56 27
Width: 448
Flags: W
LayerCount: 2
Fore
SplineSet
256 64 m 1,0,-1
 320 64 l 1,1,-1
 320 0 l 1,2,-1
 256 0 l 1,3,-1
 192 0 l 1,4,-1
 128 0 l 1,5,-1
 128 64 l 1,6,-1
 192 64 l 1,7,-1
 256 64 l 1,0,-1
320 64 m 1,8,-1
 320 128 l 1,9,-1
 320 192 l 1,10,-1
 384 192 l 1,11,-1
 384 128 l 1,12,-1
 384 64 l 1,13,-1
 320 64 l 1,8,-1
128 64 m 1,14,-1
 64 64 l 1,15,-1
 64 128 l 1,16,-1
 64 192 l 1,17,-1
 128 192 l 1,18,-1
 128 128 l 1,19,-1
 128 64 l 1,14,-1
320 192 m 1,20,-1
 256 192 l 1,21,-1
 192 192 l 1,22,-1
 128 192 l 1,23,-1
 128 256 l 1,24,-1
 192 256 l 1,25,-1
 256 256 l 1,26,-1
 320 256 l 1,27,-1
 320 192 l 1,20,-1
320 256 m 1,28,-1
 320 320 l 1,29,-1
 320 384 l 1,30,-1
 384 384 l 1,31,-1
 384 320 l 1,32,-1
 384 256 l 1,33,-1
 320 256 l 1,28,-1
128 256 m 1,34,-1
 64 256 l 1,35,-1
 64 320 l 1,36,-1
 64 384 l 1,37,-1
 128 384 l 1,38,-1
 128 320 l 1,39,-1
 128 256 l 1,34,-1
320 384 m 1,40,-1
 256 384 l 1,41,-1
 192 384 l 1,42,-1
 128 384 l 1,43,-1
 128 448 l 1,44,-1
 192 448 l 1,45,-1
 256 448 l 1,46,-1
 320 448 l 1,47,-1
 320 384 l 1,40,-1
EndSplineSet
Validated: 5
EndChar

StartChar: nine
Encoding: 57 57 28
Width: 448
Flags: W
LayerCount: 2
Fore
SplineSet
64 64 m 1,0,-1
 64 128 l 1,1,-1
 128 128 l 1,2,-1
 128 64 l 1,3,-1
 64 64 l 1,0,-1
256 64 m 1,4,-1
 320 64 l 1,5,-1
 320 0 l 1,6,-1
 256 0 l 1,7,-1
 192 0 l 1,8,-1
 128 0 l 1,9,-1
 128 64 l 1,10,-1
 192 64 l 1,11,-1
 256 64 l 1,4,-1
320 64 m 1,12,-1
 320 192 l 1,13,-1
 256 192 l 1,14,-1
 192 192 l 1,15,-1
 128 192 l 1,16,-1
 128 256 l 1,17,-1
 192 256 l 1,18,-1
 256 256 l 1,19,-1
 320 256 l 1,20,-1
 320 256 l 1,21,-1
 320 320 l 1,22,-1
 320 384 l 1,23,-1
 384 384 l 1,24,-1
 384 320 l 1,25,-1
 384 256 l 1,26,-1
 384 256 l 1,27,-1
 384 192 l 1,28,-1
 384 64 l 1,29,-1
 320 64 l 1,12,-1
128 256 m 1,30,-1
 64 256 l 1,31,-1
 64 256 l 1,32,-1
 64 320 l 1,33,-1
 64 384 l 1,34,-1
 128 384 l 1,35,-1
 128 320 l 1,36,-1
 128 256 l 1,37,-1
 128 256 l 1,30,-1
320 384 m 1,38,-1
 256 384 l 1,39,-1
 192 384 l 1,40,-1
 128 384 l 1,41,-1
 128 448 l 1,42,-1
 192 448 l 1,43,-1
 256 448 l 1,44,-1
 320 448 l 1,45,-1
 320 384 l 1,38,-1
EndSplineSet
Validated: 5
EndChar

StartChar: colon
Encoding: 58 58 29
Width: 192
Flags: W
LayerCount: 2
Fore
SplineSet
64 320 m 1,0,-1
 64 384 l 1,1,-1
 128 384 l 1,2,-1
 128 320 l 1,3,-1
 64 320 l 1,0,-1
64 320 m 1024,4,-1
64 256 m 1,5,-1
 64 320 l 1,6,-1
 128 320 l 1,7,-1
 128 256 l 1,8,-1
 64 256 l 1,5,-1
64 64 m 1,9,-1
 64 128 l 1,10,-1
 128 128 l 1,11,-1
 128 64 l 1,12,-1
 64 64 l 1,9,-1
64 0 m 1,13,-1
 64 64 l 1,14,-1
 128 64 l 1,15,-1
 128 0 l 1,16,-1
 64 0 l 1,13,-1
64 256 m 1024,17,-1
EndSplineSet
Validated: 5
EndChar

StartChar: semicolon
Encoding: 59 59 30
Width: 192
Flags: W
LayerCount: 2
Fore
SplineSet
0 -64 m 1,0,-1
 0 0 l 1,1,-1
 64 0 l 1,2,-1
 64 -64 l 1,3,-1
 0 -64 l 1,0,-1
64 192 m 1,4,-1
 64 256 l 1,5,-1
 128 256 l 1,6,-1
 128 192 l 1,7,-1
 64 192 l 1,4,-1
64 0 m 1,8,-1
 64 64 l 1,9,-1
 128 64 l 1,10,-1
 128 0 l 1,11,-1
 64 0 l 1,8,-1
EndSplineSet
Validated: 5
EndChar

StartChar: less
Encoding: 60 60 31
Width: 256
Flags: W
LayerCount: 2
Fore
SplineSet
128 64 m 1,0,-1
 128 128 l 1,1,-1
 192 128 l 1,2,-1
 192 64 l 1,3,-1
 128 64 l 1,0,-1
128 128 m 1,4,-1
 64 128 l 1,5,-1
 64 192 l 1,6,-1
 128 192 l 1,7,-1
 128 128 l 1,4,-1
64 192 m 1,8,-1
 0 192 l 1,9,-1
 0 256 l 1,10,-1
 64 256 l 1,11,-1
 64 192 l 1,8,-1
64 256 m 1,12,-1
 64 320 l 1,13,-1
 128 320 l 1,14,-1
 128 256 l 1,15,-1
 64 256 l 1,12,-1
128 320 m 1,16,-1
 128 384 l 1,17,-1
 192 384 l 1,18,-1
 192 320 l 1,19,-1
 128 320 l 1,16,-1
EndSplineSet
Validated: 5
EndChar

StartChar: equal
Encoding: 61 61 32
Width: 320
Flags: W
LayerCount: 2
Fore
SplineSet
192 192 m 1,0,-1
 256 192 l 1,1,-1
 256 128 l 1,2,-1
 192 128 l 1,3,-1
 128 128 l 1,4,-1
 64 128 l 1,5,-1
 0 128 l 1,6,-1
 0 192 l 1,7,-1
 64 192 l 1,8,-1
 128 192 l 1,9,-1
 192 192 l 1,0,-1
192 320 m 1,10,-1
 256 320 l 1,11,-1
 256 256 l 1,12,-1
 192 256 l 1,13,-1
 128 256 l 1,14,-1
 64 256 l 1,15,-1
 0 256 l 1,16,-1
 0 320 l 1,17,-1
 64 320 l 1,18,-1
 128 320 l 1,19,-1
 192 320 l 1,10,-1
EndSplineSet
Validated: 1
EndChar

StartChar: greater
Encoding: 62 62 33
Width: 256
Flags: W
LayerCount: 2
Fore
SplineSet
0 64 m 1,0,-1
 0 128 l 1,1,-1
 64 128 l 1,2,-1
 64 64 l 1,3,-1
 0 64 l 1,0,-1
64 128 m 1,4,-1
 64 192 l 1,5,-1
 128 192 l 1,6,-1
 128 128 l 1,7,-1
 64 128 l 1,4,-1
128 192 m 1,8,-1
 128 256 l 1,9,-1
 192 256 l 1,10,-1
 192 192 l 1,11,-1
 128 192 l 1,8,-1
128 256 m 1,12,-1
 64 256 l 1,13,-1
 64 320 l 1,14,-1
 128 320 l 1,15,-1
 128 256 l 1,12,-1
64 320 m 1,16,-1
 0 320 l 1,17,-1
 0 384 l 1,18,-1
 64 384 l 1,19,-1
 64 320 l 1,16,-1
EndSplineSet
Validated: 5
EndChar

StartChar: question
Encoding: 63 63 34
Width: 384
Flags: W
LayerCount: 2
Fore
SplineSet
128 0 m 1,0,-1
 128 64 l 1,1,-1
 192 64 l 1,2,-1
 192 0 l 1,3,-1
 128 0 l 1,0,-1
128 128 m 1,4,-1
 128 192 l 1,5,-1
 192 192 l 1,6,-1
 192 128 l 1,7,-1
 128 128 l 1,4,-1
0 320 m 1,8,-1
 0 384 l 1,9,-1
 64 384 l 1,10,-1
 64 320 l 1,11,-1
 0 320 l 1,8,-1
192 192 m 1,12,-1
 192 256 l 1,13,-1
 256 256 l 1,14,-1
 256 192 l 1,15,-1
 192 192 l 1,12,-1
256 256 m 1,16,-1
 256 320 l 1,17,-1
 256 384 l 1,18,-1
 320 384 l 1,19,-1
 320 320 l 1,20,-1
 320 256 l 1,21,-1
 256 256 l 1,16,-1
256 384 m 1,22,-1
 192 384 l 1,23,-1
 128 384 l 1,24,-1
 64 384 l 1,25,-1
 64 448 l 1,26,-1
 128 448 l 1,27,-1
 192 448 l 1,28,-1
 256 448 l 1,29,-1
 256 384 l 1,22,-1
EndSplineSet
Validated: 5
EndChar

StartChar: at
Encoding: 64 64 35
Width: 576
Flags: W
LayerCount: 2
Fore
SplineSet
512 0 m 1,0,-1
 448 0 l 1,1,-1
 448 64 l 1,2,-1
 512 64 l 1,3,-1
 512 0 l 1,0,-1
448 0 m 1024,4,-1
448 0 m 1024,5,-1
512 0 m 1024,6,-1
512 0 m 1024,7,-1
512 0 m 1,8,-1
 448 0 l 1,9,-1
 448 64 l 1,10,-1
 512 64 l 1,11,-1
 512 0 l 1,8,-1
448 0 m 1024,12,-1
448 0 m 1,13,-1
 384 0 l 1,14,-1
 384 64 l 1,15,-1
 448 64 l 1,16,-1
 448 0 l 1,13,-1
384 0 m 1024,17,-1
384 0 m 1,18,-1
 320 0 l 1,19,-1
 320 64 l 1,20,-1
 384 64 l 1,21,-1
 384 0 l 1,18,-1
320 0 m 1024,22,-1
320 0 m 1,23,-1
 256 0 l 1,24,-1
 256 64 l 1,25,-1
 320 64 l 1,26,-1
 320 0 l 1,23,-1
256 0 m 1024,27,-1
128 192 m 1,28,-1
 64 192 l 1,29,-1
 64 256 l 1,30,-1
 128 256 l 1,31,-1
 128 192 l 1,28,-1
128 256 m 1,32,-1
 64 256 l 1,33,-1
 64 320 l 1,34,-1
 128 320 l 1,35,-1
 128 256 l 1,32,-1
128 320 m 1,36,-1
 64 320 l 1,37,-1
 64 384 l 1,38,-1
 128 384 l 1,39,-1
 128 320 l 1,36,-1
64 320 m 1024,40,-1
192 384 m 1,41,-1
 128 384 l 1,42,-1
 128 448 l 1,43,-1
 192 448 l 1,44,-1
 192 384 l 1,41,-1
128 384 m 1024,45,-1
256 448 m 1,46,-1
 192 448 l 1,47,-1
 192 512 l 1,48,-1
 256 512 l 1,49,-1
 256 448 l 1,46,-1
192 448 m 1024,50,-1
320 448 m 1,51,-1
 256 448 l 1,52,-1
 256 512 l 1,53,-1
 320 512 l 1,54,-1
 320 448 l 1,51,-1
256 448 m 1024,55,-1
384 448 m 1,56,-1
 320 448 l 1,57,-1
 320 512 l 1,58,-1
 384 512 l 1,59,-1
 384 448 l 1,56,-1
320 448 m 1024,60,-1
448 448 m 1,61,-1
 384 448 l 1,62,-1
 384 512 l 1,63,-1
 448 512 l 1,64,-1
 448 448 l 1,61,-1
384 448 m 1024,65,-1
512 384 m 1,66,-1
 448 384 l 1,67,-1
 448 448 l 1,68,-1
 512 448 l 1,69,-1
 512 384 l 1,66,-1
448 384 m 1024,70,-1
512 320 m 1,71,-1
 448 320 l 1,72,-1
 448 384 l 1,73,-1
 512 384 l 1,74,-1
 512 320 l 1,71,-1
448 320 m 1024,75,-1
512 256 m 1,76,-1
 448 256 l 1,77,-1
 448 320 l 1,78,-1
 512 320 l 1,79,-1
 512 256 l 1,76,-1
448 256 m 1024,80,-1
512 192 m 1,81,-1
 448 192 l 1,82,-1
 448 256 l 1,83,-1
 512 256 l 1,84,-1
 512 192 l 1,81,-1
448 192 m 1024,85,-1
448 128 m 1,86,-1
 384 128 l 1,87,-1
 384 192 l 1,88,-1
 448 192 l 1,89,-1
 448 128 l 1,86,-1
384 128 m 1,90,-1
 320 128 l 1,91,-1
 320 192 l 1,92,-1
 384 192 l 1,93,-1
 384 128 l 1,90,-1
384 192 m 1,94,-1
 320 192 l 1,95,-1
 320 256 l 1,96,-1
 384 256 l 1,97,-1
 384 192 l 1,94,-1
384 256 m 1,98,-1
 320 256 l 1,99,-1
 320 320 l 1,100,-1
 384 320 l 1,101,-1
 384 256 l 1,98,-1
320 256 m 1024,102,-1
384 320 m 1,103,-1
 320 320 l 1,104,-1
 320 384 l 1,105,-1
 384 384 l 1,106,-1
 384 320 l 1,103,-1
320 320 m 1024,107,-1
320 320 m 1,108,-1
 256 320 l 1,109,-1
 256 384 l 1,110,-1
 320 384 l 1,111,-1
 320 320 l 1,108,-1
256 320 m 1024,112,-1
256 256 m 1,113,-1
 192 256 l 1,114,-1
 192 320 l 1,115,-1
 256 320 l 1,116,-1
 256 256 l 1,113,-1
192 256 m 1024,117,-1
320 128 m 1,118,-1
 256 128 l 1,119,-1
 256 192 l 1,120,-1
 320 192 l 1,121,-1
 320 128 l 1,118,-1
256 192 m 1024,122,-1
256 192 m 1,123,-1
 192 192 l 1,124,-1
 192 256 l 1,125,-1
 256 256 l 1,126,-1
 256 192 l 1,123,-1
192 192 m 1024,127,-1
192 128 m 1024,128,-1
256 0 m 1,129,-1
 192 0 l 1,130,-1
 192 64 l 1,131,-1
 256 64 l 1,132,-1
 256 0 l 1,129,-1
192 0 m 1024,133,-1
128 128 m 1,134,-1
 64 128 l 1,135,-1
 64 192 l 1,136,-1
 128 192 l 1,137,-1
 128 128 l 1,134,-1
192 64 m 1,138,-1
 128 64 l 1,139,-1
 128 128 l 1,140,-1
 192 128 l 1,141,-1
 192 64 l 1,138,-1
128 64 m 1024,142,-1
127 64 m 1024,143,-1
EndSplineSet
Validated: 5
EndChar

StartChar: A
Encoding: 65 65 36
Width: 448
Flags: W
LayerCount: 2
Fore
SplineSet
384 320 m 1,0,-1
 384 256 l 1,1,-1
 384 192 l 1,2,-1
 384 128 l 1,3,-1
 384 64 l 1,4,-1
 384 0 l 1,5,-1
 320 0 l 1,6,-1
 320 64 l 1,7,-1
 320 128 l 1,8,-1
 256 128 l 1,9,-1
 192 128 l 1,10,-1
 128 128 l 1,11,-1
 128 64 l 1,12,-1
 128 0 l 1,13,-1
 64 0 l 1,14,-1
 64 64 l 1,15,-1
 64 128 l 1,16,-1
 64 192 l 1,17,-1
 64 256 l 1,18,-1
 64 320 l 1,19,-1
 128 320 l 1,20,-1
 128 256 l 1,21,-1
 128 192 l 1,22,-1
 192 192 l 1,23,-1
 256 192 l 1,24,-1
 320 192 l 1,25,-1
 320 256 l 1,26,-1
 320 320 l 1,27,-1
 384 320 l 1,0,-1
320 384 m 1,28,-1
 320 320 l 1,29,-1
 256 320 l 1,30,-1
 256 384 l 1,31,-1
 320 384 l 1,28,-1
256 384 m 1024,32,-1
192 384 m 1,33,-1
 192 320 l 1,34,-1
 128 320 l 1,35,-1
 128 384 l 1,36,-1
 192 384 l 1,33,-1
192 320 m 1024,37,-1
128 384 m 1024,38,-1
256 448 m 1,39,-1
 256 384 l 1,40,-1
 192 384 l 1,41,-1
 192 448 l 1,42,-1
 256 448 l 1,39,-1
192 448 m 1024,43,-1
EndSplineSet
Validated: 5
EndChar

StartChar: B
Encoding: 66 66 37
Width: 448
Flags: W
LayerCount: 2
Fore
SplineSet
256 64 m 1,0,-1
 320 64 l 1,1,-1
 320 128 l 1,2,-1
 320 192 l 1,3,-1
 320 256 l 1,4,-1
 256 256 l 1,5,-1
 192 256 l 1,6,-1
 128 256 l 1,7,-1
 128 192 l 1,8,-1
 128 128 l 1,9,-1
 128 64 l 1,10,-1
 192 64 l 1,11,-1
 256 64 l 1,0,-1
256 0 m 1,12,-1
 192 0 l 1,13,-1
 128 0 l 1,14,-1
 64 0 l 1,15,-1
 64 64 l 1,16,-1
 64 128 l 1,17,-1
 64 192 l 1,18,-1
 64 256 l 1,19,-1
 64 320 l 1,20,-1
 64 384 l 1,21,-1
 64 448 l 1,22,-1
 128 448 l 1,23,-1
 192 448 l 1,24,-1
 256 448 l 1,25,-1
 320 448 l 1,26,-1
 320 384 l 1,27,-1
 384 384 l 1,28,-1
 384 320 l 1,29,-1
 320 320 l 1,30,-1
 320 384 l 1,31,-1
 256 384 l 1,32,-1
 192 384 l 1,33,-1
 128 384 l 1,34,-1
 128 320 l 1,35,-1
 192 320 l 1,36,-1
 256 320 l 1,37,-1
 320 320 l 1,38,-1
 320 256 l 1,39,-1
 384 256 l 1,40,-1
 384 192 l 1,41,-1
 384 128 l 1,42,-1
 384 64 l 1,43,-1
 320 64 l 1,44,-1
 320 0 l 1,45,-1
 256 0 l 1,12,-1
EndSplineSet
Validated: 5
EndChar

StartChar: C
Encoding: 67 67 38
Width: 448
Flags: W
LayerCount: 2
Fore
SplineSet
320 384 m 1024,0,-1
320 384 m 1,1,-1
 320 320 l 1,2,-1
 384 320 l 1,3,-1
 384 384 l 1,4,-1
 320 384 l 1,1,-1
384 320 m 1024,5,-1
320 384 m 1,6,-1
 320 384 l 1,7,-1
 320 448 l 1,8,-1
 320 448 l 1,9,-1
 256 448 l 1,10,-1
 192 448 l 1,11,-1
 128 448 l 1,12,-1
 128 384 l 1,13,-1
 192 384 l 1,14,-1
 256 384 l 1,15,-1
 320 384 l 1,6,-1
128 384 m 1024,16,-1
64 320 m 1,17,-1
 64 384 l 1,18,-1
 128 384 l 1,19,-1
 128 320 l 1,20,-1
 64 320 l 1,17,-1
64 320 m 1,21,-1
 64 320 l 1,22,-1
 64 320 l 1,21,-1
320 64 m 1,23,-1
 320 128 l 1,24,-1
 384 128 l 1,25,-1
 384 64 l 1,26,-1
 320 64 l 1,23,-1
384 128 m 1024,27,-1
320 64 m 1,28,-1
 320 64 l 1,29,-1
 320 0 l 1,30,-1
 320 0 l 1,31,-1
 256 0 l 1,32,-1
 192 0 l 1,33,-1
 128 0 l 1,34,-1
 128 64 l 1,35,-1
 192 64 l 1,36,-1
 256 64 l 1,37,-1
 320 64 l 1,28,-1
128 64 m 1,38,-1
 64 64 l 1,39,-1
 64 128 l 1,40,-1
 64 192 l 1,41,-1
 64 256 l 1,42,-1
 64 320 l 1,43,-1
 128 320 l 1,44,-1
 128 256 l 1,45,-1
 128 192 l 1,46,-1
 128 128 l 1,47,-1
 128 64 l 1,38,-1
EndSplineSet
Validated: 5
EndChar

StartChar: D
Encoding: 68 68 39
Width: 448
Flags: W
LayerCount: 2
Fore
SplineSet
256 64 m 1,0,-1
 320 64 l 1,1,-1
 320 128 l 1,2,-1
 320 192 l 1,3,-1
 320 256 l 1,4,-1
 320 320 l 1,5,-1
 256 320 l 1,6,-1
 256 384 l 1,7,-1
 192 384 l 1,8,-1
 128 384 l 1,9,-1
 128 320 l 1,10,-1
 128 256 l 1,11,-1
 128 192 l 1,12,-1
 128 128 l 1,13,-1
 128 64 l 1,14,-1
 192 64 l 1,15,-1
 256 64 l 1,0,-1
256 0 m 1,16,-1
 192 0 l 1,17,-1
 128 0 l 1,18,-1
 64 0 l 1,19,-1
 64 64 l 1,20,-1
 64 128 l 1,21,-1
 64 192 l 1,22,-1
 64 256 l 1,23,-1
 64 320 l 1,24,-1
 64 384 l 1,25,-1
 64 448 l 1,26,-1
 128 448 l 1,27,-1
 192 448 l 1,28,-1
 256 448 l 1,29,-1
 256 384 l 1,30,-1
 320 384 l 1,31,-1
 320 320 l 1,32,-1
 384 320 l 1,33,-1
 384 256 l 1,34,-1
 384 192 l 1,35,-1
 384 128 l 1,36,-1
 384 64 l 1,37,-1
 320 64 l 1,38,-1
 320 0 l 1,39,-1
 256 0 l 1,16,-1
EndSplineSet
Validated: 5
EndChar

StartChar: E
Encoding: 69 69 40
Width: 448
Flags: W
LayerCount: 2
Fore
SplineSet
128 64 m 1,0,-1
 128 0 l 1,1,-1
 64 0 l 1,2,-1
 64 64 l 1,3,-1
 128 64 l 1,0,-1
128 0 m 1024,4,-1
64 64 m 1024,5,-1
128 448 m 1,6,-1
 128 384 l 1,7,-1
 64 384 l 1,8,-1
 64 448 l 1,9,-1
 128 448 l 1,6,-1
128 384 m 1024,10,-1
64 448 m 1024,11,-1
320 64 m 1,12,-1
 384 64 l 1,13,-1
 384 0 l 1,14,-1
 320 0 l 1,15,-1
 256 0 l 1,16,-1
 192 0 l 1,17,-1
 128 0 l 1,18,-1
 128 64 l 1,19,-1
 192 64 l 1,20,-1
 256 64 l 1,21,-1
 320 64 l 1,12,-1
128 64 m 1,22,-1
 64 64 l 1,23,-1
 64 128 l 1,24,-1
 64 192 l 1,25,-1
 64 256 l 1,26,-1
 64 320 l 1,27,-1
 64 384 l 1,28,-1
 128 384 l 1,29,-1
 128 256 l 1,30,-1
 192 256 l 1,31,-1
 256 256 l 1,32,-1
 320 256 l 1,33,-1
 320 192 l 1,34,-1
 256 192 l 1,35,-1
 192 192 l 1,36,-1
 128 192 l 1,37,-1
 128 192 l 1,38,-1
 128 128 l 1,39,-1
 128 64 l 1,22,-1
320 448 m 1,40,-1
 384 448 l 1,41,-1
 384 384 l 1,42,-1
 320 384 l 1,43,-1
 256 384 l 1,44,-1
 192 384 l 1,45,-1
 128 384 l 1,46,-1
 128 448 l 1,47,-1
 192 448 l 1,48,-1
 256 448 l 1,49,-1
 320 448 l 1,40,-1
EndSplineSet
Validated: 5
EndChar

StartChar: F
Encoding: 70 70 41
Width: 448
Flags: W
LayerCount: 2
Fore
SplineSet
128 448 m 1,0,-1
 128 384 l 1,1,-1
 64 384 l 1,2,-1
 64 448 l 1,3,-1
 128 448 l 1,0,-1
64 0 m 1,4,-1
 64 64 l 1,5,-1
 64 128 l 1,6,-1
 64 192 l 1,7,-1
 64 256 l 1,8,-1
 64 320 l 1,9,-1
 64 384 l 1,10,-1
 128 384 l 1,11,-1
 128 256 l 1,12,-1
 192 256 l 1,13,-1
 256 256 l 1,14,-1
 320 256 l 1,15,-1
 320 192 l 1,16,-1
 256 192 l 1,17,-1
 192 192 l 1,18,-1
 128 192 l 1,19,-1
 128 192 l 1,20,-1
 128 128 l 1,21,-1
 128 64 l 1,22,-1
 128 0 l 1,23,-1
 64 0 l 1,4,-1
320 448 m 1,24,-1
 384 448 l 1,25,-1
 384 384 l 1,26,-1
 320 384 l 1,27,-1
 256 384 l 1,28,-1
 192 384 l 1,29,-1
 128 384 l 1,30,-1
 128 448 l 1,31,-1
 192 448 l 1,32,-1
 256 448 l 1,33,-1
 320 448 l 1,24,-1
EndSplineSet
Validated: 5
EndChar

StartChar: G
Encoding: 71 71 42
Width: 509
Flags: W
LayerCount: 2
Fore
SplineSet
381 64 m 1,0,-1
 381 128 l 1,1,-1
 381 192 l 1,2,-1
 317 192 l 1,3,-1
 253 192 l 1,4,-1
 253 256 l 1,5,-1
 317 256 l 1,6,-1
 381 256 l 1,7,-1
 445 256 l 1,8,-1
 445 192 l 1,9,-1
 445 64 l 1,10,-1
 381 64 l 1,0,-1
253 64 m 1,11,-1
 125 64 l 1,12,-1
 125 0 l 1,13,-1
 253 0 l 1,14,-1
 317 0 l 1,15,-1
 381 0 l 1,16,-1
 381 64 l 1,17,-1
 317 64 l 1,18,-1
 253 64 l 1,11,-1
253 448 m 1,19,-1
 125 448 l 1,20,-1
 125 384 l 1,21,-1
 253 384 l 1,22,-1
 317 384 l 1,23,-1
 381 384 l 1,24,-1
 381 448 l 1,25,-1
 317 448 l 1,26,-1
 253 448 l 1,19,-1
381 320 m 1,27,-1
 381 384 l 1,28,-1
 445 384 l 1,29,-1
 445 320 l 1,30,-1
 381 320 l 1,27,-1
125 64 m 1,31,-1
 61 64 l 1,32,-1
 61 128 l 1,33,-1
 61 192 l 1,34,-1
 61 256 l 1,35,-1
 61 320 l 1,36,-1
 61 384 l 1,37,-1
 125 384 l 1,38,-1
 125 320 l 1,39,-1
 125 256 l 1,40,-1
 125 192 l 1,41,-1
 125 128 l 1,42,-1
 125 64 l 1,31,-1
EndSplineSet
Validated: 5
EndChar

StartChar: H
Encoding: 72 72 43
Width: 448
Flags: W
LayerCount: 2
Fore
SplineSet
320 0 m 1,0,-1
 320 64 l 1,1,-1
 320 128 l 1,2,-1
 320 192 l 1,3,-1
 320 256 l 1,4,-1
 256 256 l 1,5,-1
 192 256 l 1,6,-1
 128 256 l 1,7,-1
 128 192 l 1,8,-1
 128 128 l 1,9,-1
 128 64 l 1,10,-1
 128 0 l 1,11,-1
 64 0 l 1,12,-1
 64 64 l 1,13,-1
 64 128 l 1,14,-1
 64 192 l 1,15,-1
 64 256 l 1,16,-1
 64 320 l 1,17,-1
 64 384 l 1,18,-1
 64 448 l 1,19,-1
 128 448 l 1,20,-1
 128 384 l 1,21,-1
 128 320 l 1,22,-1
 192 320 l 1,23,-1
 256 320 l 1,24,-1
 320 320 l 1,25,-1
 320 384 l 1,26,-1
 320 448 l 1,27,-1
 384 448 l 1,28,-1
 384 384 l 1,29,-1
 384 320 l 1,30,-1
 384 256 l 1,31,-1
 384 192 l 1,32,-1
 384 128 l 1,33,-1
 384 64 l 1,34,-1
 384 0 l 1,35,-1
 320 0 l 1,0,-1
EndSplineSet
Validated: 1
EndChar

StartChar: I
Encoding: 73 73 44
Width: 448
Flags: W
LayerCount: 2
Fore
SplineSet
320 64 m 1,0,-1
 384 64 l 1,1,-1
 384 0 l 1,2,-1
 320 0 l 1,3,-1
 256 0 l 1,4,-1
 192 0 l 1,5,-1
 128 0 l 1,6,-1
 64 0 l 1,7,-1
 64 64 l 1,8,-1
 128 64 l 1,9,-1
 192 64 l 1,10,-1
 192 128 l 1,11,-1
 192 192 l 1,12,-1
 192 256 l 1,13,-1
 192 320 l 1,14,-1
 192 384 l 1,15,-1
 128 384 l 1,16,-1
 64 384 l 1,17,-1
 64 448 l 1,18,-1
 128 448 l 1,19,-1
 192 448 l 1,20,-1
 256 448 l 1,21,-1
 320 448 l 1,22,-1
 384 448 l 1,23,-1
 384 384 l 1,24,-1
 320 384 l 1,25,-1
 256 384 l 1,26,-1
 256 320 l 1,27,-1
 256 256 l 1,28,-1
 256 192 l 1,29,-1
 256 128 l 1,30,-1
 256 64 l 1,31,-1
 320 64 l 1,0,-1
EndSplineSet
Validated: 1
EndChar

StartChar: J
Encoding: 74 74 45
Width: 448
Flags: W
LayerCount: 2
Fore
SplineSet
192 64 m 1,0,-1
 256 64 l 1,1,-1
 256 0 l 1,2,-1
 192 0 l 1,3,-1
 128 0 l 1,4,-1
 64 0 l 1,5,-1
 64 64 l 1,6,-1
 128 64 l 1,7,-1
 192 64 l 1,0,-1
256 64 m 1,8,-1
 256 128 l 1,9,-1
 320 128 l 1,10,-1
 320 64 l 1,11,-1
 256 64 l 1,8,-1
320 128 m 1,12,-1
 320 192 l 1,13,-1
 320 256 l 1,14,-1
 320 320 l 1,15,-1
 320 384 l 1,16,-1
 256 384 l 1,17,-1
 192 384 l 1,18,-1
 128 384 l 1,19,-1
 64 384 l 1,20,-1
 64 448 l 1,21,-1
 128 448 l 1,22,-1
 192 448 l 1,23,-1
 256 448 l 1,24,-1
 320 448 l 1,25,-1
 384 448 l 1,26,-1
 384 384 l 1,27,-1
 384 320 l 1,28,-1
 384 256 l 1,29,-1
 384 192 l 1,30,-1
 384 128 l 1,31,-1
 320 128 l 1,12,-1
EndSplineSet
Validated: 5
EndChar

StartChar: K
Encoding: 75 75 46
Width: 448
Flags: W
LayerCount: 2
Fore
SplineSet
320 0 m 1,0,-1
 320 64 l 1,1,-1
 320 128 l 1,2,-1
 384 128 l 1,3,-1
 384 64 l 1,4,-1
 384 0 l 1,5,-1
 320 0 l 1,0,-1
64 0 m 1,6,-1
 64 64 l 1,7,-1
 64 128 l 1,8,-1
 64 192 l 1,9,-1
 64 256 l 1,10,-1
 64 320 l 1,11,-1
 64 384 l 1,12,-1
 64 448 l 1,13,-1
 128 448 l 1,14,-1
 128 384 l 1,15,-1
 128 320 l 1,16,-1
 128 256 l 1,17,-1
 192 256 l 1,18,-1
 256 256 l 1,19,-1
 256 192 l 1,20,-1
 320 192 l 1,21,-1
 320 128 l 1,22,-1
 256 128 l 1,23,-1
 256 192 l 1,24,-1
 192 192 l 1,25,-1
 128 192 l 1,26,-1
 128 128 l 1,27,-1
 128 64 l 1,28,-1
 128 0 l 1,29,-1
 64 0 l 1,6,-1
256 256 m 1,30,-1
 256 320 l 1,31,-1
 320 320 l 1,32,-1
 320 256 l 1,33,-1
 256 256 l 1,30,-1
320 320 m 1,34,-1
 320 384 l 1,35,-1
 320 448 l 1,36,-1
 384 448 l 1,37,-1
 384 384 l 1,38,-1
 384 320 l 1,39,-1
 320 320 l 1,34,-1
EndSplineSet
Validated: 5
EndChar

StartChar: L
Encoding: 76 76 47
Width: 448
Flags: W
LayerCount: 2
Fore
SplineSet
384 128 m 1,0,-1
 384 64 l 1,1,-1
 320 64 l 1,2,-1
 320 128 l 1,3,-1
 384 128 l 1,0,-1
384 64 m 1024,4,-1
320 128 m 1024,5,-1
128 64 m 1,6,-1
 128 0 l 1,7,-1
 64 0 l 1,8,-1
 64 64 l 1,9,-1
 128 64 l 1,6,-1
128 0 m 1024,10,-1
64 64 m 1024,11,-1
320 64 m 1,12,-1
 384 64 l 1,13,-1
 384 0 l 1,14,-1
 320 0 l 1,15,-1
 256 0 l 1,16,-1
 192 0 l 1,17,-1
 128 0 l 1,18,-1
 128 64 l 1,19,-1
 192 64 l 1,20,-1
 256 64 l 1,21,-1
 320 64 l 1,12,-1
128 64 m 1,22,-1
 64 64 l 1,23,-1
 64 128 l 1,24,-1
 64 192 l 1,25,-1
 64 256 l 1,26,-1
 64 320 l 1,27,-1
 64 384 l 1,28,-1
 64 448 l 1,29,-1
 128 448 l 1,30,-1
 128 384 l 1,31,-1
 128 320 l 1,32,-1
 128 256 l 1,33,-1
 128 192 l 1,34,-1
 128 128 l 1,35,-1
 128 64 l 1,22,-1
EndSplineSet
Validated: 5
EndChar

StartChar: M
Encoding: 77 77 48
Width: 448
Flags: W
LayerCount: 2
Fore
SplineSet
192 320 m 1024,0,-1
128 384 m 1,1,-1
 128 320 l 1,2,-1
 192 320 l 1,3,-1
 192 384 l 1,4,-1
 128 384 l 1,1,-1
128 0 m 1,5,-1
 128 64 l 1,6,-1
 128 128 l 1,7,-1
 128 192 l 1,8,-1
 128 256 l 1,9,-1
 128 320 l 1,10,-1
 128 448 l 1,11,-1
 64 448 l 1,12,-1
 64 320 l 1,13,-1
 64 256 l 1,14,-1
 64 192 l 1,15,-1
 64 128 l 1,16,-1
 64 64 l 1,17,-1
 64 0 l 1,18,-1
 128 0 l 1,5,-1
128 448 m 1024,19,-1
192 384 m 1024,20,-1
256 320 m 1,21,-1
 192 320 l 1,22,-1
 192 256 l 1,23,-1
 256 256 l 1,24,-1
 256 320 l 1,21,-1
320 384 m 1,25,-1
 320 320 l 1,26,-1
 256 320 l 1,27,-1
 256 384 l 1,28,-1
 320 384 l 1,25,-1
320 0 m 1,29,-1
 320 64 l 1,30,-1
 320 128 l 1,31,-1
 320 192 l 1,32,-1
 320 256 l 1,33,-1
 320 320 l 1,34,-1
 320 448 l 1,35,-1
 384 448 l 1,36,-1
 384 320 l 1,37,-1
 384 256 l 1,38,-1
 384 192 l 1,39,-1
 384 128 l 1,40,-1
 384 64 l 1,41,-1
 384 0 l 1,42,-1
 320 0 l 1,29,-1
320 448 m 1024,43,-1
256 384 m 1024,44,-1
EndSplineSet
Validated: 5
EndChar

StartChar: N
Encoding: 78 78 49
Width: 448
Flags: W
LayerCount: 2
Fore
SplineSet
384 319 m 1024,0,-1
384 447 m 1,1,-1
 384 383 l 1,2,-1
 384 319 l 1,3,-1
 384 255 l 1,4,-1
 384 191 l 1,5,-1
 384 127 l 1,6,-1
 384 63 l 1,7,-1
 384 -1 l 1,8,-1
 320 -1 l 1,9,-1
 320 63 l 1,10,-1
 320 127 l 1,11,-1
 320 191 l 1,12,-1
 320 255 l 1,13,-1
 320 319 l 1,14,-1
 320 383 l 1,15,-1
 320 447 l 1,16,-1
 384 447 l 1,1,-1
320 192 m 1,17,-1
 320 128 l 1,18,-1
 256 128 l 1,19,-1
 256 192 l 1,20,-1
 320 192 l 1,17,-1
320 128 m 1024,21,-1
320 128 m 1024,22,-1
256 192 m 1024,23,-1
256 256 m 1,24,-1
 256 192 l 1,25,-1
 192 192 l 1,26,-1
 192 256 l 1,27,-1
 256 256 l 1,24,-1
192 320 m 1,28,-1
 192 256 l 1,29,-1
 128 256 l 1,30,-1
 128 320 l 1,31,-1
 192 320 l 1,28,-1
128 320 m 1024,32,-1
128 448 m 1,33,-1
 128 384 l 1,34,-1
 128 320 l 1,35,-1
 128 256 l 1,36,-1
 128 192 l 1,37,-1
 128 128 l 1,38,-1
 128 64 l 1,39,-1
 128 0 l 1,40,-1
 64 0 l 1,41,-1
 64 64 l 1,42,-1
 64 128 l 1,43,-1
 64 192 l 1,44,-1
 64 256 l 1,45,-1
 64 320 l 1,46,-1
 64 384 l 1,47,-1
 64 448 l 1,48,-1
 128 448 l 1,33,-1
EndSplineSet
Validated: 5
EndChar

StartChar: O
Encoding: 79 79 50
Width: 448
Flags: W
LayerCount: 2
Fore
SplineSet
256 64 m 1,0,-1
 320 64 l 1,1,-1
 320 0 l 1,2,-1
 256 0 l 1,3,-1
 192 0 l 1,4,-1
 128 0 l 1,5,-1
 128 64 l 1,6,-1
 192 64 l 1,7,-1
 256 64 l 1,0,-1
320 64 m 1,8,-1
 320 128 l 1,9,-1
 320 192 l 1,10,-1
 320 256 l 1,11,-1
 320 320 l 1,12,-1
 320 384 l 1,13,-1
 384 384 l 1,14,-1
 384 320 l 1,15,-1
 384 256 l 1,16,-1
 384 192 l 1,17,-1
 384 128 l 1,18,-1
 384 64 l 1,19,-1
 320 64 l 1,8,-1
128 64 m 1,20,-1
 64 64 l 1,21,-1
 64 128 l 1,22,-1
 64 192 l 1,23,-1
 64 256 l 1,24,-1
 64 320 l 1,25,-1
 64 384 l 1,26,-1
 128 384 l 1,27,-1
 128 320 l 1,28,-1
 128 256 l 1,29,-1
 128 192 l 1,30,-1
 128 128 l 1,31,-1
 128 64 l 1,20,-1
320 384 m 1,32,-1
 256 384 l 1,33,-1
 192 384 l 1,34,-1
 128 384 l 1,35,-1
 128 448 l 1,36,-1
 192 448 l 1,37,-1
 256 448 l 1,38,-1
 320 448 l 1,39,-1
 320 384 l 1,32,-1
EndSplineSet
Validated: 5
EndChar

StartChar: P
Encoding: 80 80 51
Width: 448
Flags: W
LayerCount: 2
Fore
SplineSet
64 0 m 1,0,-1
 64 64 l 1,1,-1
 64 128 l 1,2,-1
 64 192 l 1,3,-1
 64 256 l 1,4,-1
 64 320 l 1,5,-1
 64 384 l 1,6,-1
 64 448 l 1,7,-1
 128 448 l 1,8,-1
 192 448 l 1,9,-1
 256 448 l 1,10,-1
 320 448 l 1,11,-1
 320 384 l 1,12,-1
 384 384 l 1,13,-1
 384 320 l 1,14,-1
 384 256 l 1,15,-1
 384 192 l 1,16,-1
 320 192 l 1,17,-1
 320 256 l 1,18,-1
 320 320 l 1,19,-1
 320 384 l 1,20,-1
 256 384 l 1,21,-1
 192 384 l 1,22,-1
 128 384 l 1,23,-1
 128 320 l 1,24,-1
 128 256 l 1,25,-1
 128 192 l 1,26,-1
 192 192 l 1,27,-1
 256 192 l 1,28,-1
 320 192 l 1,29,-1
 320 128 l 1,30,-1
 256 128 l 1,31,-1
 192 128 l 1,32,-1
 128 128 l 1,33,-1
 128 64 l 1,34,-1
 128 0 l 1,35,-1
 64 0 l 1,0,-1
EndSplineSet
Validated: 5
EndChar

StartChar: Q
Encoding: 81 81 52
Width: 448
Flags: W
LayerCount: 2
Fore
SplineSet
320 0 m 1,0,-1
 320 64 l 1,1,-1
 384 64 l 1,2,-1
 384 0 l 1,3,-1
 320 0 l 1,0,-1
192 64 m 1,4,-1
 256 64 l 1,5,-1
 256 0 l 1,6,-1
 192 0 l 1,7,-1
 128 0 l 1,8,-1
 128 64 l 1,9,-1
 192 64 l 1,4,-1
320 64 m 1,10,-1
 256 64 l 1,11,-1
 256 128 l 1,12,-1
 320 128 l 1,13,-1
 320 64 l 1,10,-1
128 64 m 1,14,-1
 64 64 l 1,15,-1
 64 128 l 1,16,-1
 64 192 l 1,17,-1
 64 256 l 1,18,-1
 64 320 l 1,19,-1
 64 384 l 1,20,-1
 128 384 l 1,21,-1
 128 320 l 1,22,-1
 128 256 l 1,23,-1
 128 192 l 1,24,-1
 128 128 l 1,25,-1
 128 64 l 1,14,-1
320 128 m 1,26,-1
 320 192 l 1,27,-1
 320 256 l 1,28,-1
 320 320 l 1,29,-1
 320 384 l 1,30,-1
 384 384 l 1,31,-1
 384 320 l 1,32,-1
 384 256 l 1,33,-1
 384 192 l 1,34,-1
 384 128 l 1,35,-1
 320 128 l 1,26,-1
256 128 m 1,36,-1
 192 128 l 1,37,-1
 192 192 l 1,38,-1
 256 192 l 1,39,-1
 256 128 l 1,36,-1
320 384 m 1,40,-1
 256 384 l 1,41,-1
 192 384 l 1,42,-1
 128 384 l 1,43,-1
 128 448 l 1,44,-1
 192 448 l 1,45,-1
 256 448 l 1,46,-1
 320 448 l 1,47,-1
 320 384 l 1,40,-1
EndSplineSet
Validated: 5
EndChar

StartChar: R
Encoding: 82 82 53
Width: 448
Flags: W
LayerCount: 2
Fore
SplineSet
320 0 m 1,0,-1
 320 64 l 1,1,-1
 320 128 l 1,2,-1
 384 128 l 1,3,-1
 384 64 l 1,4,-1
 384 0 l 1,5,-1
 320 0 l 1,0,-1
64 0 m 1,6,-1
 64 64 l 1,7,-1
 64 128 l 1,8,-1
 64 192 l 1,9,-1
 64 256 l 1,10,-1
 64 320 l 1,11,-1
 64 384 l 1,12,-1
 64 448 l 1,13,-1
 128 448 l 1,14,-1
 192 448 l 1,15,-1
 256 448 l 1,16,-1
 320 448 l 1,17,-1
 320 384 l 1,18,-1
 384 384 l 1,19,-1
 384 320 l 1,20,-1
 384 256 l 1,21,-1
 384 192 l 1,22,-1
 320 192 l 1,23,-1
 320 256 l 1,24,-1
 320 320 l 1,25,-1
 320 384 l 1,26,-1
 256 384 l 1,27,-1
 192 384 l 1,28,-1
 128 384 l 1,29,-1
 128 320 l 1,30,-1
 128 256 l 1,31,-1
 128 192 l 1,32,-1
 192 192 l 1,33,-1
 256 192 l 1,34,-1
 320 192 l 1,35,-1
 320 128 l 1,36,-1
 256 128 l 1,37,-1
 192 128 l 1,38,-1
 128 128 l 1,39,-1
 128 64 l 1,40,-1
 128 0 l 1,41,-1
 64 0 l 1,6,-1
EndSplineSet
Validated: 5
EndChar

StartChar: S
Encoding: 83 83 54
Width: 448
Flags: W
LayerCount: 2
Fore
SplineSet
64 129 m 1,0,-1
 64 65 l 1,1,-1
 129 65 l 1,2,-1
 129 129 l 1,3,-1
 64 129 l 1,0,-1
65 129 m 1024,4,-1
65 129 m 1024,5,-1
171 77 m 1024,6,-1
128 0 m 1,7,-1
 192 0 l 1,8,-1
 256 0 l 1,9,-1
 320 0 l 1,10,-1
 320 64 l 1,11,-1
 256 64 l 1,12,-1
 192 64 l 1,13,-1
 128 64 l 1,14,-1
 128 0 l 1,7,-1
319 384 m 1,15,-1
 319 320 l 1,16,-1
 384 320 l 1,17,-1
 384 384 l 1,18,-1
 319 384 l 1,15,-1
320 384 m 1024,19,-1
320 448 m 1,20,-1
 320 384 l 1,21,-1
 256 384 l 1,22,-1
 192 384 l 1,23,-1
 128 384 l 1,24,-1
 128 448 l 1,25,-1
 192 448 l 1,26,-1
 256 448 l 1,27,-1
 320 448 l 1,20,-1
320 64 m 1,28,-1
 320 128 l 1,29,-1
 320 192 l 1,30,-1
 384 192 l 1,31,-1
 384 128 l 1,32,-1
 384 64 l 1,33,-1
 320 64 l 1,28,-1
320 192 m 1,34,-1
 256 192 l 1,35,-1
 192 192 l 1,36,-1
 128 192 l 1,37,-1
 128 256 l 1,38,-1
 192 256 l 1,39,-1
 256 256 l 1,40,-1
 320 256 l 1,41,-1
 320 192 l 1,34,-1
128 256 m 1,42,-1
 64 256 l 1,43,-1
 64 320 l 1,44,-1
 64 384 l 1,45,-1
 128 384 l 1,46,-1
 128 320 l 1,47,-1
 128 256 l 1,42,-1
EndSplineSet
Validated: 5
EndChar

StartChar: T
Encoding: 84 84 55
Width: 448
Flags: W
LayerCount: 2
Fore
SplineSet
192 0 m 1,0,-1
 192 64 l 1,1,-1
 192 128 l 1,2,-1
 192 192 l 1,3,-1
 192 256 l 1,4,-1
 192 320 l 1,5,-1
 192 384 l 1,6,-1
 128 384 l 1,7,-1
 64 384 l 1,8,-1
 64 448 l 1,9,-1
 128 448 l 1,10,-1
 192 448 l 1,11,-1
 256 448 l 1,12,-1
 320 448 l 1,13,-1
 384 448 l 1,14,-1
 384 384 l 1,15,-1
 320 384 l 1,16,-1
 256 384 l 1,17,-1
 256 320 l 1,18,-1
 256 256 l 1,19,-1
 256 192 l 1,20,-1
 256 128 l 1,21,-1
 256 64 l 1,22,-1
 256 0 l 1,23,-1
 192 0 l 1,0,-1
EndSplineSet
Validated: 1
EndChar

StartChar: U
Encoding: 85 85 56
Width: 448
Flags: W
LayerCount: 2
Fore
SplineSet
256 64 m 1,0,-1
 320 64 l 1,1,-1
 320 0 l 1,2,-1
 256 0 l 1,3,-1
 192 0 l 1,4,-1
 128 0 l 1,5,-1
 128 64 l 1,6,-1
 192 64 l 1,7,-1
 256 64 l 1,0,-1
320 64 m 1,8,-1
 320 128 l 1,9,-1
 320 192 l 1,10,-1
 320 256 l 1,11,-1
 320 320 l 1,12,-1
 320 384 l 1,13,-1
 320 448 l 1,14,-1
 384 448 l 1,15,-1
 384 384 l 1,16,-1
 384 320 l 1,17,-1
 384 256 l 1,18,-1
 384 192 l 1,19,-1
 384 128 l 1,20,-1
 384 64 l 1,21,-1
 320 64 l 1,8,-1
128 64 m 1,22,-1
 64 64 l 1,23,-1
 64 128 l 1,24,-1
 64 192 l 1,25,-1
 64 256 l 1,26,-1
 64 320 l 1,27,-1
 64 384 l 1,28,-1
 64 448 l 1,29,-1
 128 448 l 1,30,-1
 128 384 l 1,31,-1
 128 320 l 1,32,-1
 128 256 l 1,33,-1
 128 192 l 1,34,-1
 128 128 l 1,35,-1
 128 64 l 1,22,-1
EndSplineSet
Validated: 5
EndChar

StartChar: V
Encoding: 86 86 57
Width: 448
Flags: W
LayerCount: 2
Fore
SplineSet
192 0 m 1,0,-1
 192 64 l 1,1,-1
 256 64 l 1,2,-1
 256 0 l 1,3,-1
 192 0 l 1,0,-1
256 64 m 1,4,-1
 256 128 l 1,5,-1
 320 128 l 1,6,-1
 320 64 l 1,7,-1
 256 64 l 1,4,-1
192 64 m 1,8,-1
 128 64 l 1,9,-1
 128 128 l 1,10,-1
 192 128 l 1,11,-1
 192 64 l 1,8,-1
320 128 m 1,12,-1
 320 192 l 1,13,-1
 320 256 l 1,14,-1
 320 320 l 1,15,-1
 320 384 l 1,16,-1
 320 448 l 1,17,-1
 384 448 l 1,18,-1
 384 384 l 1,19,-1
 384 320 l 1,20,-1
 384 256 l 1,21,-1
 384 192 l 1,22,-1
 384 128 l 1,23,-1
 320 128 l 1,12,-1
128 128 m 1,24,-1
 64 128 l 1,25,-1
 64 192 l 1,26,-1
 64 256 l 1,27,-1
 64 320 l 1,28,-1
 64 384 l 1,29,-1
 64 448 l 1,30,-1
 128 448 l 1,31,-1
 128 384 l 1,32,-1
 128 320 l 1,33,-1
 128 256 l 1,34,-1
 128 192 l 1,35,-1
 128 128 l 1,24,-1
EndSplineSet
Validated: 5
EndChar

StartChar: W
Encoding: 87 87 58
Width: 576
Flags: W
LayerCount: 2
Fore
SplineSet
384 64 m 1,0,-1
 448 64 l 1,1,-1
 448 0 l 1,2,-1
 384 0 l 1,3,-1
 320 0 l 1,4,-1
 320 64 l 1,5,-1
 384 64 l 1,0,-1
192 64 m 1,6,-1
 256 64 l 1,7,-1
 256 0 l 1,8,-1
 192 0 l 1,9,-1
 128 0 l 1,10,-1
 128 64 l 1,11,-1
 192 64 l 1,6,-1
448 64 m 1,12,-1
 448 128 l 1,13,-1
 448 192 l 1,14,-1
 448 256 l 1,15,-1
 448 320 l 1,16,-1
 448 384 l 1,17,-1
 448 448 l 1,18,-1
 512 448 l 1,19,-1
 512 384 l 1,20,-1
 512 320 l 1,21,-1
 512 256 l 1,22,-1
 512 192 l 1,23,-1
 512 128 l 1,24,-1
 512 64 l 1,25,-1
 448 64 l 1,12,-1
320 64 m 1,26,-1
 256 64 l 1,27,-1
 256 128 l 1,28,-1
 256 192 l 1,29,-1
 256 256 l 1,30,-1
 256 320 l 1,31,-1
 320 320 l 1,32,-1
 320 256 l 1,33,-1
 320 192 l 1,34,-1
 320 128 l 1,35,-1
 320 64 l 1,26,-1
128 64 m 1,36,-1
 64 64 l 1,37,-1
 64 128 l 1,38,-1
 64 192 l 1,39,-1
 64 256 l 1,40,-1
 64 320 l 1,41,-1
 64 384 l 1,42,-1
 64 448 l 1,43,-1
 128 448 l 1,44,-1
 128 384 l 1,45,-1
 128 320 l 1,46,-1
 128 256 l 1,47,-1
 128 192 l 1,48,-1
 128 128 l 1,49,-1
 128 64 l 1,36,-1
EndSplineSet
Validated: 5
EndChar

StartChar: X
Encoding: 88 88 59
Width: 448
Flags: W
LayerCount: 2
Fore
SplineSet
320 0 m 1,0,-1
 320 64 l 1,1,-1
 320 128 l 1,2,-1
 384 128 l 1,3,-1
 384 64 l 1,4,-1
 384 0 l 1,5,-1
 320 0 l 1,0,-1
64 0 m 1,6,-1
 64 64 l 1,7,-1
 64 128 l 1,8,-1
 128 128 l 1,9,-1
 128 64 l 1,10,-1
 128 0 l 1,11,-1
 64 0 l 1,6,-1
320 128 m 1,12,-1
 256 128 l 1,13,-1
 256 192 l 1,14,-1
 320 192 l 1,15,-1
 320 128 l 1,12,-1
128 128 m 1,16,-1
 128 192 l 1,17,-1
 192 192 l 1,18,-1
 192 128 l 1,19,-1
 128 128 l 1,16,-1
256 192 m 1,20,-1
 192 192 l 1,21,-1
 192 256 l 1,22,-1
 256 256 l 1,23,-1
 256 192 l 1,20,-1
256 256 m 1,24,-1
 256 320 l 1,25,-1
 320 320 l 1,26,-1
 320 256 l 1,27,-1
 256 256 l 1,24,-1
192 256 m 1,28,-1
 128 256 l 1,29,-1
 128 320 l 1,30,-1
 192 320 l 1,31,-1
 192 256 l 1,28,-1
320 320 m 1,32,-1
 320 384 l 1,33,-1
 320 448 l 1,34,-1
 384 448 l 1,35,-1
 384 384 l 1,36,-1
 384 320 l 1,37,-1
 320 320 l 1,32,-1
128 320 m 1,38,-1
 64 320 l 1,39,-1
 64 384 l 1,40,-1
 64 448 l 1,41,-1
 128 448 l 1,42,-1
 128 384 l 1,43,-1
 128 320 l 1,38,-1
EndSplineSet
Validated: 5
EndChar

StartChar: Y
Encoding: 89 89 60
Width: 448
Flags: W
LayerCount: 2
Fore
SplineSet
192 0 m 1,0,-1
 192 64 l 1,1,-1
 192 128 l 1,2,-1
 192 192 l 1,3,-1
 256 192 l 1,4,-1
 256 128 l 1,5,-1
 256 64 l 1,6,-1
 256 0 l 1,7,-1
 192 0 l 1,0,-1
256 192 m 1,8,-1
 256 256 l 1,9,-1
 320 256 l 1,10,-1
 320 192 l 1,11,-1
 256 192 l 1,8,-1
192 192 m 1,12,-1
 128 192 l 1,13,-1
 128 256 l 1,14,-1
 192 256 l 1,15,-1
 192 192 l 1,12,-1
320 256 m 1,16,-1
 320 320 l 1,17,-1
 320 384 l 1,18,-1
 320 448 l 1,19,-1
 384 448 l 1,20,-1
 384 384 l 1,21,-1
 384 320 l 1,22,-1
 384 256 l 1,23,-1
 320 256 l 1,16,-1
128 256 m 1,24,-1
 64 256 l 1,25,-1
 64 320 l 1,26,-1
 64 384 l 1,27,-1
 64 448 l 1,28,-1
 128 448 l 1,29,-1
 128 384 l 1,30,-1
 128 320 l 1,31,-1
 128 256 l 1,24,-1
EndSplineSet
Validated: 5
EndChar

StartChar: Z
Encoding: 90 90 61
Width: 448
Flags: W
LayerCount: 2
Fore
SplineSet
320 64 m 1,0,-1
 384 64 l 1,1,-1
 384 0 l 1,2,-1
 320 0 l 1,3,-1
 256 0 l 1,4,-1
 192 0 l 1,5,-1
 128 0 l 1,6,-1
 64 0 l 1,7,-1
 64 64 l 1,8,-1
 64 128 l 1,9,-1
 128 128 l 1,10,-1
 128 64 l 1,11,-1
 192 64 l 1,12,-1
 256 64 l 1,13,-1
 320 64 l 1,0,-1
128 128 m 1,14,-1
 128 192 l 1,15,-1
 192 192 l 1,16,-1
 192 128 l 1,17,-1
 128 128 l 1,14,-1
192 192 m 1,18,-1
 192 256 l 1,19,-1
 256 256 l 1,20,-1
 256 192 l 1,21,-1
 192 192 l 1,18,-1
256 256 m 1,22,-1
 256 320 l 1,23,-1
 320 320 l 1,24,-1
 320 256 l 1,25,-1
 256 256 l 1,22,-1
320 320 m 1,26,-1
 320 384 l 1,27,-1
 256 384 l 1,28,-1
 192 384 l 1,29,-1
 128 384 l 1,30,-1
 64 384 l 1,31,-1
 64 448 l 1,32,-1
 128 448 l 1,33,-1
 192 448 l 1,34,-1
 256 448 l 1,35,-1
 320 448 l 1,36,-1
 384 448 l 1,37,-1
 384 384 l 1,38,-1
 384 320 l 1,39,-1
 320 320 l 1,26,-1
EndSplineSet
Validated: 5
EndChar

StartChar: bracketleft
Encoding: 91 91 62
Width: 257
Flags: W
LayerCount: 2
Fore
SplineSet
131 -64 m 1,0,-1
 67 -64 l 1,1,-1
 67 0 l 1,2,-1
 67 64 l 1,3,-1
 67 128 l 1,4,-1
 67 192 l 1,5,-1
 67 256 l 1,6,-1
 67 320 l 1,7,-1
 67 384 l 1,8,-1
 67 448 l 1,9,-1
 131 448 l 1,10,-1
 195 448 l 1,11,-1
 195 384 l 1,12,-1
 131 384 l 1,13,-1
 131 320 l 1,14,-1
 131 256 l 1,15,-1
 131 192 l 1,16,-1
 131 128 l 1,17,-1
 131 64 l 1,18,-1
 131 0 l 1,19,-1
 195 0 l 1,20,-1
 195 -64 l 1,21,-1
 131 -64 l 1,0,-1
EndSplineSet
Validated: 1
EndChar

StartChar: backslash
Encoding: 92 92 63
Width: 320
Flags: W
LayerCount: 2
Fore
SplineSet
192 0 m 1,0,-1
 192 64 l 1,1,-1
 192 128 l 1,2,-1
 256 128 l 1,3,-1
 256 64 l 1,4,-1
 256 0 l 1,5,-1
 192 0 l 1,0,-1
192 128 m 1,6,-1
 128 128 l 1,7,-1
 128 192 l 1,8,-1
 128 256 l 1,9,-1
 128 320 l 1,10,-1
 192 320 l 1,11,-1
 192 256 l 1,12,-1
 192 192 l 1,13,-1
 192 128 l 1,6,-1
128 320 m 1,14,-1
 64 320 l 1,15,-1
 64 384 l 1,16,-1
 64 448 l 1,17,-1
 128 448 l 1,18,-1
 128 384 l 1,19,-1
 128 320 l 1,14,-1
EndSplineSet
Validated: 5
EndChar

StartChar: bracketright
Encoding: 93 93 64
Width: 256
Flags: W
LayerCount: 2
Fore
SplineSet
128 -64 m 1,0,-1
 64 -64 l 1,1,-1
 64 0 l 1,2,-1
 128 0 l 1,3,-1
 128 64 l 1,4,-1
 128 128 l 1,5,-1
 128 192 l 1,6,-1
 128 256 l 1,7,-1
 128 320 l 1,8,-1
 128 384 l 1,9,-1
 64 384 l 1,10,-1
 64 448 l 1,11,-1
 128 448 l 1,12,-1
 192 448 l 1,13,-1
 192 384 l 1,14,-1
 192 320 l 1,15,-1
 192 256 l 1,16,-1
 192 192 l 1,17,-1
 192 128 l 1,18,-1
 192 64 l 1,19,-1
 192 0 l 1,20,-1
 192 -64 l 1,21,-1
 128 -64 l 1,0,-1
EndSplineSet
Validated: 1
EndChar

StartChar: asciicircum
Encoding: 94 94 65
Width: 384
Flags: W
LayerCount: 2
Fore
SplineSet
256 256 m 1,0,-1
 256 320 l 1,1,-1
 320 320 l 1,2,-1
 320 256 l 1,3,-1
 256 256 l 1,0,-1
0 256 m 1,4,-1
 0 320 l 1,5,-1
 64 320 l 1,6,-1
 64 256 l 1,7,-1
 0 256 l 1,4,-1
256 320 m 1,8,-1
 192 320 l 1,9,-1
 192 384 l 1,10,-1
 256 384 l 1,11,-1
 256 320 l 1,8,-1
64 320 m 1,12,-1
 64 384 l 1,13,-1
 128 384 l 1,14,-1
 128 320 l 1,15,-1
 64 320 l 1,12,-1
192 384 m 1,16,-1
 128 384 l 1,17,-1
 128 448 l 1,18,-1
 192 448 l 1,19,-1
 192 384 l 1,16,-1
EndSplineSet
Validated: 5
EndChar

StartChar: underscore
Encoding: 95 95 66
Width: 384
Flags: W
LayerCount: 2
Fore
SplineSet
256 64 m 1,0,-1
 320 64 l 1,1,-1
 320 0 l 1,2,-1
 256 0 l 1,3,-1
 192 0 l 1,4,-1
 128 0 l 1,5,-1
 64 0 l 1,6,-1
 0 0 l 1,7,-1
 0 64 l 1,8,-1
 64 64 l 1,9,-1
 128 64 l 1,10,-1
 192 64 l 1,11,-1
 256 64 l 1,0,-1
EndSplineSet
Validated: 1
EndChar

StartChar: grave
Encoding: 96 96 67
Width: 192
Flags: W
LayerCount: 2
Fore
SplineSet
64 320 m 1,0,-1
 64 384 l 1,1,-1
 128 384 l 1,2,-1
 128 320 l 1,3,-1
 64 320 l 1,0,-1
64 384 m 1,4,-1
 0 384 l 1,5,-1
 0 448 l 1,6,-1
 64 448 l 1,7,-1
 64 384 l 1,4,-1
EndSplineSet
Validated: 5
EndChar

StartChar: a
Encoding: 97 97 68
Width: 512
Flags: W
LayerCount: 2
Fore
SplineSet
385 64 m 1,0,-1
 449 64 l 1,1,-1
 449 0 l 1,2,-1
 385 0 l 1,3,-1
 385 64 l 1,0,-1
321 0 m 1,4,-1
 257 0 l 1,5,-1
 193 0 l 1,6,-1
 129 0 l 1,7,-1
 129 64 l 1,8,-1
 65 64 l 1,9,-1
 65 128 l 1,10,-1
 129 128 l 1,11,-1
 129 192 l 1,12,-1
 193 192 l 1,13,-1
 257 192 l 1,14,-1
 321 192 l 1,15,-1
 321 256 l 1,16,-1
 385 256 l 1,17,-1
 385 192 l 1,18,-1
 385 128 l 1,19,-1
 385 64 l 1,20,-1
 321 64 l 1,21,-1
 321 0 l 1,4,-1
257 64 m 1,22,-1
 321 64 l 1,23,-1
 321 128 l 1,24,-1
 257 128 l 1,25,-1
 193 128 l 1,26,-1
 129 128 l 1,27,-1
 129 64 l 1,28,-1
 193 64 l 1,29,-1
 257 64 l 1,22,-1
321 256 m 1,30,-1
 257 256 l 1,31,-1
 193 256 l 1,32,-1
 129 256 l 1,33,-1
 129 320 l 1,34,-1
 193 320 l 1,35,-1
 257 320 l 1,36,-1
 321 320 l 1,37,-1
 321 256 l 1,30,-1
EndSplineSet
Validated: 5
EndChar

StartChar: b
Encoding: 98 98 69
Width: 449
Flags: W
LayerCount: 2
Fore
SplineSet
259 64 m 1,0,-1
 323 64 l 1,1,-1
 323 128 l 1,2,-1
 323 192 l 1,3,-1
 323 256 l 1,4,-1
 259 256 l 1,5,-1
 195 256 l 1,6,-1
 131 256 l 1,7,-1
 131 192 l 1,8,-1
 131 128 l 1,9,-1
 131 64 l 1,10,-1
 195 64 l 1,11,-1
 259 64 l 1,0,-1
259 0 m 1,12,-1
 195 0 l 1,13,-1
 131 0 l 1,14,-1
 67 0 l 1,15,-1
 67 64 l 1,16,-1
 67 128 l 1,17,-1
 67 192 l 1,18,-1
 67 256 l 1,19,-1
 67 320 l 1,20,-1
 67 384 l 1,21,-1
 67 448 l 1,22,-1
 131 448 l 1,23,-1
 131 384 l 1,24,-1
 131 320 l 1,25,-1
 195 320 l 1,26,-1
 259 320 l 1,27,-1
 323 320 l 1,28,-1
 323 256 l 1,29,-1
 387 256 l 1,30,-1
 387 192 l 1,31,-1
 387 128 l 1,32,-1
 387 64 l 1,33,-1
 323 64 l 1,34,-1
 323 0 l 1,35,-1
 259 0 l 1,12,-1
EndSplineSet
Validated: 5
EndChar

StartChar: c
Encoding: 99 99 70
Width: 448
Flags: W
LayerCount: 2
Fore
SplineSet
384 64 m 1,0,-1
 320 64 l 1,1,-1
 320 128 l 1,2,-1
 384 128 l 1,3,-1
 384 64 l 1,0,-1
384 256 m 1,4,-1
 384 192 l 1,5,-1
 320 192 l 1,6,-1
 320 256 l 1,7,-1
 384 256 l 1,4,-1
320 64 m 1,8,-1
 384 64 l 1,9,-1
 320 64 l 1,10,-1
 320 0 l 1,11,-1
 256 0 l 1,12,-1
 128 0 l 1,13,-1
 128 64 l 1,14,-1
 256 64 l 1,15,-1
 320 64 l 1,8,-1
128 64 m 1,16,-1
 64 64 l 1,17,-1
 64 128 l 1,18,-1
 64 192 l 1,19,-1
 64 256 l 1,20,-1
 128 256 l 1,21,-1
 128 192 l 1,22,-1
 128 128 l 1,23,-1
 128 64 l 1,16,-1
320 320 m 1,24,-1
 320 256 l 1,25,-1
 384 256 l 1,26,-1
 320 256 l 1,27,-1
 256 256 l 1,28,-1
 128 256 l 1,29,-1
 128 320 l 1,30,-1
 256 320 l 1,31,-1
 320 320 l 1,24,-1
EndSplineSet
Validated: 5
EndChar

StartChar: d
Encoding: 100 100 71
Width: 448
Flags: W
LayerCount: 2
Fore
SplineSet
320 0 m 1,0,-1
 256 0 l 1,1,-1
 192 0 l 1,2,-1
 128 0 l 1,3,-1
 128 64 l 1,4,-1
 64 64 l 1,5,-1
 64 128 l 1,6,-1
 64 192 l 1,7,-1
 64 256 l 1,8,-1
 128 256 l 1,9,-1
 128 320 l 1,10,-1
 192 320 l 1,11,-1
 256 320 l 1,12,-1
 320 320 l 1,13,-1
 320 384 l 1,14,-1
 320 448 l 1,15,-1
 384 448 l 1,16,-1
 384 384 l 1,17,-1
 384 320 l 1,18,-1
 384 256 l 1,19,-1
 384 192 l 1,20,-1
 384 128 l 1,21,-1
 384 64 l 1,22,-1
 384 0 l 1,23,-1
 320 0 l 1,0,-1
256 64 m 1,24,-1
 320 64 l 1,25,-1
 320 128 l 1,26,-1
 320 192 l 1,27,-1
 320 256 l 1,28,-1
 256 256 l 1,29,-1
 192 256 l 1,30,-1
 128 256 l 1,31,-1
 128 192 l 1,32,-1
 128 128 l 1,33,-1
 128 64 l 1,34,-1
 192 64 l 1,35,-1
 256 64 l 1,24,-1
EndSplineSet
Validated: 5
EndChar

StartChar: e
Encoding: 101 101 72
Width: 448
Flags: W
LayerCount: 2
Fore
SplineSet
128 64 m 1,0,-1
 381 64 l 1,1,-1
 381 0 l 1,2,-1
 128 0 l 1,3,-1
 128 64 l 1,0,-1
128 64 m 1,4,-1
 64 64 l 1,5,-1
 64 128 l 1,6,-1
 64 192 l 1,7,-1
 64 256 l 1,8,-1
 128 256 l 1,9,-1
 128 192 l 1,10,-1
 192 192 l 1,11,-1
 256 192 l 1,12,-1
 320 192 l 1,13,-1
 320 256 l 1,14,-1
 384 256 l 1,15,-1
 384 192 l 1,16,-1
 320 192 l 1,17,-1
 320 128 l 1,18,-1
 256 128 l 1,19,-1
 192 128 l 1,20,-1
 128 128 l 1,21,-1
 128 64 l 1,4,-1
320 256 m 1,22,-1
 256 256 l 1,23,-1
 192 256 l 1,24,-1
 128 256 l 1,25,-1
 128 320 l 1,26,-1
 192 320 l 1,27,-1
 256 320 l 1,28,-1
 320 320 l 1,29,-1
 320 256 l 1,22,-1
EndSplineSet
Validated: 5
EndChar

StartChar: f
Encoding: 102 102 73
Width: 384
Flags: W
LayerCount: 2
Fore
SplineSet
256 256 m 1,0,-1
 256 192 l 1,1,-1
 192 192 l 1,2,-1
 192 256 l 1,3,-1
 256 256 l 1,0,-1
64 256 m 1,4,-1
 128 256 l 5,5,-1
 128 192 l 1,6,-1
 64 192 l 1,7,-1
 64 256 l 1,4,-1
128 0 m 1,8,-1
 128 64 l 1,9,-1
 128 128 l 1,10,-1
 128 192 l 1,11,-1
 128 256 l 5,12,-1
 64 256 l 1,13,-1
 128 256 l 5,14,-1
 128 320 l 1,15,-1
 128 384 l 1,16,-1
 192 384 l 1,17,-1
 192 256 l 1,18,-1
 256 256 l 1,19,-1
 192 256 l 1,20,-1
 192 192 l 1,21,-1
 192 128 l 1,22,-1
 192 64 l 1,23,-1
 192 0 l 1,24,-1
 128 0 l 1,8,-1
256 448 m 1,25,-1
 320 448 l 1,26,-1
 320 384 l 1,27,-1
 256 384 l 1,28,-1
 192 384 l 1,29,-1
 192 448 l 1,30,-1
 256 448 l 1,25,-1
EndSplineSet
Validated: 5
EndChar

StartChar: g
Encoding: 103 103 74
Width: 448
Flags: W
LayerCount: 2
Fore
SplineSet
128 -64 m 1,0,-1
 128 -128 l 1,1,-1
 64 -128 l 1,2,-1
 64 -64 l 1,3,-1
 128 -64 l 1,0,-1
64 -64 m 1024,4,-1
320 -128 m 1,5,-1
 320 -192 l 1,6,-1
 256 -192 l 1,7,-1
 192 -192 l 1,8,-1
 128 -192 l 1,9,-1
 128 -128 l 1,10,-1
 192 -128 l 1,11,-1
 256 -128 l 1,12,-1
 320 -128 l 1,5,-1
384 -128 m 1024,13,-1
320 -128 m 1,14,-1
 320 0 l 1,15,-1
 256 0 l 1,16,-1
 192 0 l 1,17,-1
 128 0 l 1,18,-1
 128 64 l 1,19,-1
 192 64 l 1,20,-1
 256 64 l 1,21,-1
 320 64 l 1,22,-1
 320 128 l 1,23,-1
 320 192 l 1,24,-1
 320 256 l 1,25,-1
 384 256 l 1,26,-1
 384 192 l 1,27,-1
 384 128 l 1,28,-1
 384 64 l 1,29,-1
 384 0 l 1,30,-1
 384 -128 l 1,31,-1
 320 -128 l 1,14,-1
128 64 m 1,32,-1
 64 64 l 1,33,-1
 64 128 l 1,34,-1
 64 192 l 1,35,-1
 64 256 l 1,36,-1
 128 256 l 1,37,-1
 128 192 l 1,38,-1
 128 128 l 1,39,-1
 128 64 l 1,32,-1
320 256 m 1,40,-1
 256 256 l 1,41,-1
 192 256 l 1,42,-1
 128 256 l 1,43,-1
 128 320 l 1,44,-1
 192 320 l 1,45,-1
 256 320 l 1,46,-1
 320 320 l 1,47,-1
 320 256 l 1,40,-1
EndSplineSet
Validated: 5
EndChar

StartChar: h
Encoding: 104 104 75
Width: 384
Flags: W
LayerCount: 2
Fore
SplineSet
192 256 m 1,0,-1
 128 256 l 1,1,-1
 128 192 l 1,2,-1
 192 192 l 1,3,-1
 192 256 l 1,4,-1
 192 320 l 1,5,-1
 256 320 l 1,6,-1
 256 256 l 1,7,-1
 191 256 l 1,8,-1
 192 256 l 1,0,-1
192 320 m 1024,9,-1
128 320 m 1,10,-1
 128 384 l 1,11,-1
 128 448 l 1,12,-1
 64 448 l 1,13,-1
 64 384 l 1,14,-1
 64 320 l 1,15,-1
 64 256 l 1,16,-1
 64 192 l 1,17,-1
 64 128 l 1,18,-1
 64 64 l 1,19,-1
 64 0 l 1,20,-1
 128 0 l 1,21,-1
 128 64 l 1,22,-1
 128 128 l 1,23,-1
 128 192 l 1,24,-1
 128 256 l 1,25,-1
 128 320 l 1,10,-1
256 0 m 1,26,-1
 256 64 l 1,27,-1
 256 128 l 1,28,-1
 256 192 l 1,29,-1
 256 256 l 1,30,-1
 320 256 l 1,31,-1
 320 192 l 1,32,-1
 320 128 l 1,33,-1
 320 64 l 1,34,-1
 320 0 l 1,35,-1
 256 0 l 1,26,-1
256 256 m 1024,36,-1
EndSplineSet
Validated: 5
EndChar

StartChar: i
Encoding: 105 105 76
Width: 192
Flags: W
LayerCount: 2
Fore
SplineSet
64 0 m 1,0,-1
 64 64 l 1,1,-1
 64 128 l 1,2,-1
 64 192 l 1,3,-1
 64 256 l 1,4,-1
 64 256 l 1,5,-1
 64 320 l 1,6,-1
 64 320 l 1,7,-1
 128 320 l 1,8,-1
 128 256 l 1,9,-1
 128 192 l 1,10,-1
 128 128 l 1,11,-1
 128 64 l 1,12,-1
 128 0 l 1,13,-1
 64 0 l 1,0,-1
64 384 m 1,14,-1
 64 448 l 1,15,-1
 128 448 l 1,16,-1
 128 384 l 1,17,-1
 64 384 l 1,14,-1
EndSplineSet
Validated: 5
EndChar

StartChar: j
Encoding: 106 106 77
Width: 320
Flags: W
LayerCount: 2
Fore
SplineSet
192 384 m 1,0,-1
 192 448 l 1,1,-1
 256 448 l 1,2,-1
 256 384 l 1,3,-1
 192 384 l 1,0,-1
128 -64 m 1,4,-1
 192 -64 l 1,5,-1
 192 -128 l 1,6,-1
 128 -128 l 1,7,-1
 64 -128 l 1,8,-1
 64 -64 l 1,9,-1
 128 -64 l 1,4,-1
192 -64 m 1,10,-1
 192 0 l 1,11,-1
 192 64 l 1,12,-1
 192 128 l 1,13,-1
 192 192 l 1,14,-1
 192 256 l 1,15,-1
 128 256 l 1,16,-1
 128 320 l 1,17,-1
 192 320 l 1,18,-1
 256 320 l 1,19,-1
 256 256 l 1,20,-1
 256 192 l 1,21,-1
 256 128 l 1,22,-1
 256 64 l 1,23,-1
 256 0 l 1,24,-1
 256 -64 l 1,25,-1
 192 -64 l 1,10,-1
EndSplineSet
Validated: 5
EndChar

StartChar: k
Encoding: 107 107 78
Width: 384
Flags: W
LayerCount: 2
Fore
SplineSet
256 0 m 1,0,-1
 256 64 l 1,1,-1
 320 64 l 1,2,-1
 320 0 l 1,3,-1
 256 0 l 1,0,-1
64 0 m 1,4,-1
 64 64 l 1,5,-1
 64 128 l 1,6,-1
 64 192 l 1,7,-1
 64 256 l 1,8,-1
 64 320 l 1,9,-1
 64 384 l 1,10,-1
 64 448 l 1,11,-1
 128 448 l 1,12,-1
 128 384 l 1,13,-1
 128 320 l 1,14,-1
 128 256 l 1,15,-1
 128 192 l 1,16,-1
 192 192 l 1,17,-1
 192 128 l 1,18,-1
 256 128 l 1,19,-1
 256 64 l 1,20,-1
 192 64 l 1,21,-1
 192 128 l 1,22,-1
 128 128 l 1,23,-1
 128 64 l 1,24,-1
 128 0 l 1,25,-1
 64 0 l 1,4,-1
192 192 m 1,26,-1
 192 256 l 1,27,-1
 256 256 l 1,28,-1
 256 192 l 1,29,-1
 192 192 l 1,26,-1
256 256 m 1,30,-1
 256 320 l 1,31,-1
 320 320 l 1,32,-1
 320 256 l 1,33,-1
 256 256 l 1,30,-1
EndSplineSet
Validated: 5
EndChar

StartChar: l
Encoding: 108 108 79
Width: 192
Flags: W
LayerCount: 2
Fore
SplineSet
128 1 m 1,0,-1
 64 1 l 1,1,-1
 64 129 l 1,2,-1
 64 193 l 1,3,-1
 64 257 l 1,4,-1
 64 321 l 1,5,-1
 64 385 l 1,6,-1
 64 449 l 1,7,-1
 128 449 l 1,8,-1
 128 385 l 1,9,-1
 128 321 l 1,10,-1
 128 257 l 1,11,-1
 128 193 l 1,12,-1
 128 129 l 1,13,-1
 128 1 l 1,0,-1
EndSplineSet
Validated: 1
EndChar

StartChar: m
Encoding: 109 109 80
Width: 448
Flags: W
LayerCount: 2
Fore
SplineSet
384 256 m 1024,0,-1
320 256 m 1024,1,-1
384 256 m 1,2,-1
 384 192 l 1,3,-1
 384 128 l 1,4,-1
 384 64 l 1,5,-1
 384 0 l 1,6,-1
 320 0 l 1,7,-1
 320 64 l 1,8,-1
 320 128 l 1,9,-1
 320 192 l 1,10,-1
 320 256 l 1,11,-1
 320 256 l 1,12,-1
 384 256 l 1,13,-1
 384 256 l 1,2,-1
320 320 m 1,14,-1
 256 320 l 1,15,-1
 256 256 l 1,16,-1
 256 320 l 1,17,-1
 256 256 l 1,18,-1
 320 256 l 1,19,-1
 320 320 l 1,14,-1
128 320 m 1,20,-1
 192 320 l 1,21,-1
 192 256 l 1,22,-1
 128 256 l 1,23,-1
 128 320 l 1,20,-1
256 256 m 1,24,-1
 256 192 l 1,25,-1
 256 128 l 1,26,-1
 256 64 l 1,27,-1
 256 0 l 1,28,-1
 192 0 l 1,29,-1
 192 64 l 1,30,-1
 192 128 l 1,31,-1
 192 192 l 1,32,-1
 192 256 l 1,33,-1
 192 256 l 1,34,-1
 256 256 l 1,35,-1
 256 256 l 1,24,-1
128 256 m 1,36,-1
 128 192 l 1,37,-1
 128 128 l 1,38,-1
 128 64 l 1,39,-1
 128 0 l 1,40,-1
 64 0 l 1,41,-1
 64 64 l 1,42,-1
 64 128 l 1,43,-1
 64 192 l 1,44,-1
 64 256 l 1,45,-1
 64 320 l 1,46,-1
 128 320 l 1,47,-1
 128 256 l 1,48,-1
 128 320 l 1,49,-1
 128 256 l 1,36,-1
EndSplineSet
Validated: 5
EndChar

StartChar: n
Encoding: 110 110 81
Width: 384
Flags: W
LayerCount: 2
Fore
SplineSet
256 -1 m 1,0,-1
 256 63 l 1,1,-1
 256 127 l 1,2,-1
 256 191 l 1,3,-1
 256 255 l 1,4,-1
 320 255 l 1,5,-1
 320 191 l 1,6,-1
 320 127 l 1,7,-1
 320 63 l 1,8,-1
 320 -1 l 1,9,-1
 256 -1 l 1,0,-1
64 -1 m 1,10,-1
 64 63 l 1,11,-1
 64 127 l 1,12,-1
 64 191 l 1,13,-1
 64 255 l 1,14,-1
 64 319 l 1,15,-1
 128 319 l 1,16,-1
 128 255 l 1,17,-1
 192 255 l 1,18,-1
 192 191 l 1,19,-1
 128 191 l 1,20,-1
 128 127 l 1,21,-1
 128 63 l 1,22,-1
 128 -1 l 1,23,-1
 64 -1 l 1,10,-1
256 255 m 1,24,-1
 256 255 l 1,25,-1
 192 255 l 1,26,-1
 192 319 l 1,27,-1
 256 319 l 1,28,-1
 256 319 l 1,29,-1
 256 255 l 1,24,-1
EndSplineSet
Validated: 5
EndChar

StartChar: o
Encoding: 111 111 82
Width: 448
Flags: W
LayerCount: 2
Fore
SplineSet
256 64 m 1,0,-1
 320 64 l 1,1,-1
 320 0 l 1,2,-1
 256 0 l 1,3,-1
 192 0 l 1,4,-1
 128 0 l 1,5,-1
 128 64 l 1,6,-1
 192 64 l 1,7,-1
 256 64 l 1,0,-1
320 64 m 1,8,-1
 320 128 l 1,9,-1
 320 192 l 1,10,-1
 320 256 l 1,11,-1
 384 256 l 1,12,-1
 384 192 l 1,13,-1
 384 128 l 1,14,-1
 384 64 l 1,15,-1
 320 64 l 1,8,-1
128 64 m 1,16,-1
 64 64 l 1,17,-1
 64 128 l 1,18,-1
 64 192 l 1,19,-1
 64 256 l 1,20,-1
 128 256 l 1,21,-1
 128 192 l 1,22,-1
 128 128 l 1,23,-1
 128 64 l 1,16,-1
320 256 m 1,24,-1
 256 256 l 1,25,-1
 192 256 l 1,26,-1
 128 256 l 1,27,-1
 128 320 l 1,28,-1
 192 320 l 1,29,-1
 256 320 l 1,30,-1
 320 320 l 1,31,-1
 320 256 l 1,24,-1
EndSplineSet
Validated: 5
EndChar

StartChar: p
Encoding: 112 112 83
Width: 448
Flags: W
LayerCount: 2
Fore
SplineSet
128 -64 m 1,0,-1
 128 -128 l 1,1,-1
 128 -192 l 1,2,-1
 64 -192 l 1,3,-1
 64 -128 l 1,4,-1
 64 -64 l 1,5,-1
 64 0 l 1,6,-1
 64 64 l 1,7,-1
 64 128 l 1,8,-1
 64 192 l 1,9,-1
 64 256 l 1,10,-1
 64 320 l 5,11,-1
 128 320 l 1,12,-1
 192 320 l 1,13,-1
 256 320 l 1,14,-1
 320 320 l 1,15,-1
 320 256 l 1,16,-1
 384 256 l 1,17,-1
 384 192 l 1,18,-1
 384 128 l 1,19,-1
 384 64 l 1,20,-1
 320 64 l 1,21,-1
 320 128 l 1,22,-1
 320 192 l 1,23,-1
 320 256 l 1,24,-1
 256 256 l 1,25,-1
 192 256 l 1,26,-1
 128 256 l 1,27,-1
 128 192 l 1,28,-1
 128 128 l 1,29,-1
 128 64 l 1,30,-1
 192 64 l 1,31,-1
 256 64 l 1,32,-1
 320 64 l 1,33,-1
 320 0 l 1,34,-1
 256 0 l 1,35,-1
 192 0 l 1,36,-1
 128 0 l 1,37,-1
 128 -64 l 1,0,-1
EndSplineSet
Validated: 5
EndChar

StartChar: q
Encoding: 113 113 84
Width: 445
Flags: W
LayerCount: 2
Fore
SplineSet
381 -192 m 1024,0,-1
381 -192 m 1024,1,-1
317 -192 m 1,2,-1
 317 -64 l 1,3,-1
 317 0 l 1,4,-1
 253 0 l 1,5,-1
 189 0 l 1,6,-1
 125 0 l 1,7,-1
 125 64 l 1,8,-1
 61 64 l 1,9,-1
 61 128 l 1,10,-1
 61 192 l 1,11,-1
 61 256 l 1,12,-1
 125 256 l 1,13,-1
 125 320 l 1,14,-1
 189 320 l 1,15,-1
 253 320 l 1,16,-1
 317 320 l 1,17,-1
 381 320 l 1,18,-1
 381 256 l 1,19,-1
 381 192 l 1,20,-1
 381 128 l 1,21,-1
 381 64 l 1,22,-1
 381 0 l 1,23,-1
 381 -64 l 1,24,-1
 381 -192 l 1,25,-1
 317 -192 l 1,2,-1
253 64 m 1,26,-1
 317 64 l 1,27,-1
 317 128 l 1,28,-1
 317 192 l 1,29,-1
 317 256 l 1,30,-1
 253 256 l 1,31,-1
 189 256 l 1,32,-1
 125 256 l 1,33,-1
 125 192 l 1,34,-1
 125 128 l 1,35,-1
 125 64 l 1,36,-1
 189 64 l 1,37,-1
 253 64 l 1,26,-1
EndSplineSet
Validated: 5
EndChar

StartChar: r
Encoding: 114 114 85
Width: 384
Flags: W
LayerCount: 2
Fore
SplineSet
256 192 m 1,0,-1
 256 256 l 1,1,-1
 320 256 l 1,2,-1
 320 192 l 1,3,-1
 256 192 l 1,0,-1
64 0 m 1,4,-1
 64 64 l 1,5,-1
 64 128 l 1,6,-1
 64 192 l 1,7,-1
 64 256 l 1,8,-1
 64 320 l 1,9,-1
 128 320 l 1,10,-1
 128 256 l 1,11,-1
 192 256 l 1,12,-1
 192 192 l 1,13,-1
 128 192 l 1,14,-1
 128 128 l 1,15,-1
 128 64 l 1,16,-1
 128 0 l 1,17,-1
 64 0 l 1,4,-1
256 320 m 1,18,-1
 256 256 l 1,19,-1
 256 192 l 1,20,-1
 256 256 l 1,21,-1
 192 256 l 1,22,-1
 192 320 l 1,23,-1
 256 320 l 1,18,-1
EndSplineSet
Validated: 5
EndChar

StartChar: s
Encoding: 115 115 86
Width: 384
Flags: W
LayerCount: 2
Fore
SplineSet
256 0 m 1,0,-1
 128 0 l 1,1,-1
 64 0 l 1,2,-1
 64 64 l 1,3,-1
 128 64 l 1,4,-1
 256 64 l 1,5,-1
 256 0 l 1,0,-1
256 64 m 1,6,-1
 256 128 l 1,7,-1
 320 128 l 1,8,-1
 320 64 l 1,9,-1
 256 64 l 1,6,-1
256 128 m 1,10,-1
 128 128 l 1,11,-1
 128 192 l 1,12,-1
 256 192 l 1,13,-1
 256 128 l 1,10,-1
256 256 m 1,14,-1
 128 256 l 1,15,-1
 128 320 l 1,16,-1
 256 320 l 1,17,-1
 320 320 l 1,18,-1
 320 256 l 1,19,-1
 256 256 l 1,14,-1
128 192 m 1,20,-1
 64 192 l 1,21,-1
 64 256 l 1,22,-1
 128 256 l 1,23,-1
 128 192 l 1,20,-1
EndSplineSet
Validated: 5
EndChar

StartChar: t
Encoding: 116 116 87
Width: 320
Flags: W
LayerCount: 2
Fore
SplineSet
192 64 m 1,0,-1
 256 64 l 1,1,-1
 256 0 l 1,2,-1
 192 0 l 1,3,-1
 128 0 l 1,4,-1
 128 64 l 1,5,-1
 192 64 l 1,0,-1
128 64 m 1,6,-1
 64 64 l 1,7,-1
 64 128 l 1,8,-1
 64 192 l 1,9,-1
 64 256 l 1,10,-1
 64 256 l 1,11,-1
 64 320 l 1,12,-1
 64 320 l 1,13,-1
 64 384 l 1,14,-1
 64 448 l 1,15,-1
 128 448 l 1,16,-1
 128 384 l 1,17,-1
 128 320 l 1,18,-1
 192 320 l 1,19,-1
 256 320 l 1,20,-1
 256 256 l 1,21,-1
 192 256 l 1,22,-1
 128 256 l 1,23,-1
 128 192 l 1,24,-1
 128 128 l 1,25,-1
 128 64 l 1,6,-1
EndSplineSet
Validated: 5
EndChar

StartChar: u
Encoding: 117 117 88
Width: 449
Flags: WO
LayerCount: 2
Fore
SplineSet
320 64 m 1,0,-1
 320 0 l 1,1,-1
 384 0 l 1,2,-1
 384 64 l 1,3,-1
 320 64 l 1,0,-1
384 64 m 1024,4,-1
320 64 m 1,5,-1
 256 64 l 1,6,-1
 256 128 l 1,7,-1
 256 192 l 1,8,-1
 256 256 l 1,9,-1
 256 320 l 1,10,-1
 320 320 l 1,11,-1
 320 256 l 1,12,-1
 320 192 l 1,13,-1
 320 128 l 1,14,-1
 320 64 l 1,5,-1
256 64 m 1,15,-1
 256 0 l 1,16,-1
 192 0 l 1,17,-1
 128 0 l 1,18,-1
 128 64 l 1,19,-1
 192 64 l 1,20,-1
 256 64 l 1,15,-1
128 64 m 1,21,-1
 64 64 l 1,22,-1
 64 128 l 1,23,-1
 64 192 l 1,24,-1
 64 256 l 1,25,-1
 64 320 l 1,26,-1
 128 320 l 1,27,-1
 128 256 l 1,28,-1
 128 192 l 1,29,-1
 128 128 l 1,30,-1
 128 64 l 1,21,-1
EndSplineSet
EndChar

StartChar: v
Encoding: 118 118 89
Width: 448
Flags: W
LayerCount: 2
Fore
SplineSet
192 0 m 1,0,-1
 192 64 l 1,1,-1
 256 64 l 1,2,-1
 256 0 l 1,3,-1
 192 0 l 1,0,-1
256 64 m 1,4,-1
 256 128 l 1,5,-1
 320 128 l 1,6,-1
 320 64 l 1,7,-1
 256 64 l 1,4,-1
192 64 m 1,8,-1
 128 64 l 1,9,-1
 128 128 l 1,10,-1
 192 128 l 1,11,-1
 192 64 l 1,8,-1
320 128 m 1,12,-1
 320 192 l 1,13,-1
 320 256 l 1,14,-1
 320 320 l 1,15,-1
 384 320 l 1,16,-1
 384 256 l 1,17,-1
 384 192 l 1,18,-1
 384 128 l 1,19,-1
 320 128 l 1,12,-1
128 128 m 1,20,-1
 64 128 l 1,21,-1
 64 192 l 1,22,-1
 64 256 l 1,23,-1
 64 320 l 1,24,-1
 128 320 l 1,25,-1
 128 256 l 1,26,-1
 128 192 l 1,27,-1
 128 128 l 1,20,-1
EndSplineSet
Validated: 5
EndChar

StartChar: w
Encoding: 119 119 90
Width: 448
Flags: W
LayerCount: 2
Fore
SplineSet
317 64 m 1024,0,-1
381 65 m 1024,1,-1
317 64 m 1,2,-1
 317 65 l 1,3,-1
 317 1 l 1,4,-1
 317 0 l 1,5,-1
 253 0 l 1,6,-1
 253 64 l 1,7,-1
 317 64 l 1,2,-1
381 65 m 1,8,-1
 317 65 l 1,9,-1
 317 129 l 1,10,-1
 317 193 l 1,11,-1
 317 321 l 1,12,-1
 381 321 l 1,13,-1
 381 193 l 1,14,-1
 381 129 l 1,15,-1
 381 65 l 1,8,-1
253 64 m 1024,16,-1
189 64 m 1,17,-1
 189 65 l 1,18,-1
 189 1 l 1,19,-1
 189 0 l 1,20,-1
 125 0 l 1,21,-1
 125 64 l 1,22,-1
 189 64 l 1,17,-1
253 65 m 1,23,-1
 189 65 l 1,24,-1
 189 129 l 1,25,-1
 189 129 l 1,26,-1
 189 129 l 1,27,-1
 253 129 l 1,28,-1
 253 129 l 1,29,-1
 253 129 l 1,30,-1
 253 65 l 1,23,-1
125 64 m 1,31,-1
 61 64 l 1,32,-1
 61 128 l 1,33,-1
 61 192 l 1,34,-1
 61 256 l 1,35,-1
 61 320 l 1,36,-1
 125 320 l 1,37,-1
 125 256 l 1,38,-1
 125 192 l 1,39,-1
 125 128 l 1,40,-1
 125 64 l 1,31,-1
317 64 m 1024,41,-1
381 65 m 1024,42,-1
317 64 m 1,43,-1
 317 65 l 1,44,-1
 317 1 l 1,45,-1
 317 0 l 1,46,-1
 253 0 l 1,47,-1
 253 64 l 1,48,-1
 317 64 l 1,43,-1
381 65 m 1,49,-1
 317 65 l 1,50,-1
 317 129 l 1,51,-1
 317 193 l 1,52,-1
 317 321 l 1,53,-1
 381 321 l 1,54,-1
 381 193 l 1,55,-1
 381 129 l 1,56,-1
 381 65 l 1,49,-1
253 64 m 1024,57,-1
189 64 m 1,58,-1
 189 65 l 1,59,-1
 189 1 l 1,60,-1
 189 0 l 1,61,-1
 125 0 l 1,62,-1
 125 64 l 1,63,-1
 189 64 l 1,58,-1
253 65 m 1,64,-1
 189 65 l 1,65,-1
 189 129 l 1,66,-1
 189 129 l 1,67,-1
 189 129 l 1,68,-1
 253 129 l 1,69,-1
 253 129 l 1,70,-1
 253 129 l 1,71,-1
 253 65 l 1,64,-1
125 64 m 1,72,-1
 61 64 l 1,73,-1
 61 128 l 1,74,-1
 61 192 l 1,75,-1
 61 256 l 1,76,-1
 61 320 l 1,77,-1
 125 320 l 1,78,-1
 125 256 l 1,79,-1
 125 192 l 1,80,-1
 125 128 l 1,81,-1
 125 64 l 1,72,-1
EndSplineSet
Validated: 5
EndChar

StartChar: x
Encoding: 120 120 91
Width: 445
Flags: W
LayerCount: 2
Fore
SplineSet
317 0 m 1,0,-1
 317 64 l 1,1,-1
 381 64 l 1,2,-1
 381 0 l 1,3,-1
 317 0 l 1,0,-1
61 0 m 1,4,-1
 61 64 l 1,5,-1
 125 64 l 1,6,-1
 125 0 l 1,7,-1
 61 0 l 1,4,-1
317 64 m 1,8,-1
 253 64 l 1,9,-1
 253 128 l 1,10,-1
 317 128 l 1,11,-1
 317 64 l 1,8,-1
125 64 m 1,12,-1
 125 128 l 1,13,-1
 189 128 l 1,14,-1
 189 64 l 1,15,-1
 125 64 l 1,12,-1
253 128 m 1,16,-1
 189 128 l 1,17,-1
 189 192 l 1,18,-1
 253 192 l 1,19,-1
 253 128 l 1,16,-1
253 192 m 1,20,-1
 253 256 l 1,21,-1
 317 256 l 1,22,-1
 317 192 l 1,23,-1
 253 192 l 1,20,-1
189 192 m 1,24,-1
 125 192 l 1,25,-1
 125 256 l 1,26,-1
 189 256 l 1,27,-1
 189 192 l 1,24,-1
317 256 m 1,28,-1
 317 320 l 1,29,-1
 381 320 l 1,30,-1
 381 256 l 1,31,-1
 317 256 l 1,28,-1
125 256 m 1,32,-1
 61 256 l 1,33,-1
 61 320 l 1,34,-1
 125 320 l 1,35,-1
 125 256 l 1,32,-1
EndSplineSet
Validated: 5
EndChar

StartChar: y
Encoding: 121 121 92
Width: 384
Flags: W
LayerCount: 2
Fore
SplineSet
128 -128 m 1,0,-1
 128 -192 l 1,1,-1
 64 -192 l 1,2,-1
 64 -128 l 1,3,-1
 128 -128 l 1,0,-1
64 -192 m 1,4,-1
 64 -192 l 1,5,-1
 64 -192 l 1,4,-1
64 -192 m 1024,6,-1
128 -128 m 1024,7,-1
128 -128 m 1024,8,-1
128 -128 m 1,9,-1
 128 -128 l 1,10,-1
 128 -128 l 1,9,-1
128 -128 m 1024,11,-1
192 -64 m 1,12,-1
 192 -128 l 1,13,-1
 128 -128 l 1,14,-1
 128 -64 l 1,15,-1
 192 -64 l 1,12,-1
192 -64 m 1024,16,-1
192 -64 m 1024,17,-1
192 -64 m 1,18,-1
 192 -64 l 1,19,-1
 192 -64 l 1,18,-1
256 -64 m 1024,20,-1
256 0 m 1,21,-1
 256 64 l 1,22,-1
 320 64 l 1,23,-1
 320 128 l 1,24,-1
 320 192 l 1,25,-1
 320 256 l 1,26,-1
 320 320 l 1,27,-1
 256 320 l 1,28,-1
 256 256 l 1,29,-1
 256 192 l 1,30,-1
 256 128 l 1,31,-1
 256 64 l 1,32,-1
 192 64 l 1,33,-1
 128 64 l 1,34,-1
 128 0 l 1,35,-1
 192 0 l 1,36,-1
 256 0 l 1,37,-1
 256 -64 l 1,38,-1
 192 -64 l 1,39,-1
 192 0 l 1,40,-1
 256 0 l 1,21,-1
128 64 m 1,41,-1
 64 64 l 1,42,-1
 64 128 l 1,43,-1
 64 192 l 1,44,-1
 64 256 l 1,45,-1
 64 320 l 1,46,-1
 128 320 l 1,47,-1
 128 256 l 1,48,-1
 128 192 l 1,49,-1
 128 128 l 1,50,-1
 128 64 l 1,41,-1
EndSplineSet
Validated: 5
EndChar

StartChar: z
Encoding: 122 122 93
Width: 448
Flags: W
LayerCount: 2
Fore
SplineSet
320 64 m 1,0,-1
 384 64 l 1,1,-1
 384 0 l 1,2,-1
 320 0 l 1,3,-1
 256 0 l 1,4,-1
 192 0 l 1,5,-1
 128 0 l 1,6,-1
 64 0 l 1,7,-1
 64 64 l 1,8,-1
 128 64 l 1,9,-1
 128 128 l 1,10,-1
 192 128 l 1,11,-1
 192 64 l 1,12,-1
 256 64 l 1,13,-1
 320 64 l 1,0,-1
192 128 m 1,14,-1
 192 192 l 1,15,-1
 256 192 l 1,16,-1
 256 128 l 1,17,-1
 192 128 l 1,14,-1
256 192 m 1,18,-1
 256 256 l 1,19,-1
 192 256 l 1,20,-1
 128 256 l 1,21,-1
 64 256 l 1,22,-1
 64 320 l 1,23,-1
 128 320 l 1,24,-1
 192 320 l 1,25,-1
 256 320 l 1,26,-1
 320 320 l 1,27,-1
 384 320 l 1,28,-1
 384 256 l 1,29,-1
 320 256 l 1,30,-1
 320 192 l 1,31,-1
 256 192 l 1,18,-1
EndSplineSet
Validated: 5
EndChar

StartChar: braceleft
Encoding: 123 123 94
Width: 256
Flags: W
LayerCount: 2
Fore
SplineSet
128 -64 m 1,0,-1
 64 -64 l 1,1,-1
 64 0 l 1,2,-1
 64 64 l 1,3,-1
 64 128 l 1,4,-1
 64 192 l 1,5,-1
 0 192 l 1,6,-1
 0 256 l 1,7,-1
 64 256 l 1,8,-1
 64 320 l 1,9,-1
 64 384 l 1,10,-1
 64 448 l 1,11,-1
 128 448 l 1,12,-1
 192 448 l 1,13,-1
 192 384 l 1,14,-1
 128 384 l 1,15,-1
 128 320 l 1,16,-1
 128 256 l 1,17,-1
 128 192 l 1,18,-1
 128 128 l 1,19,-1
 128 64 l 1,20,-1
 128 0 l 1,21,-1
 192 0 l 1,22,-1
 192 -64 l 1,23,-1
 128 -64 l 1,0,-1
EndSplineSet
Validated: 1
EndChar

StartChar: bar
Encoding: 124 124 95
Width: 192
Flags: W
LayerCount: 2
Fore
SplineSet
64 0 m 1,0,-1
 64 64 l 1,1,-1
 64 128 l 1,2,-1
 64 192 l 1,3,-1
 64 256 l 1,4,-1
 64 320 l 1,5,-1
 64 384 l 1,6,-1
 64 448 l 1,7,-1
 128 448 l 1,8,-1
 128 384 l 1,9,-1
 128 320 l 1,10,-1
 128 256 l 1,11,-1
 128 192 l 1,12,-1
 128 128 l 1,13,-1
 128 64 l 1,14,-1
 128 0 l 1,15,-1
 64 0 l 1,0,-1
EndSplineSet
EndChar

StartChar: braceright
Encoding: 125 125 96
Width: 256
Flags: W
LayerCount: 2
Fore
SplineSet
64 -64 m 1,0,-1
 0 -64 l 1,1,-1
 0 0 l 1,2,-1
 64 0 l 1,3,-1
 64 64 l 1,4,-1
 64 128 l 1,5,-1
 64 192 l 1,6,-1
 64 256 l 1,7,-1
 64 320 l 1,8,-1
 64 384 l 1,9,-1
 0 384 l 1,10,-1
 0 448 l 1,11,-1
 64 448 l 1,12,-1
 128 448 l 1,13,-1
 128 384 l 1,14,-1
 128 320 l 1,15,-1
 128 256 l 1,16,-1
 192 256 l 1,17,-1
 192 192 l 1,18,-1
 128 192 l 1,19,-1
 128 128 l 1,20,-1
 128 64 l 1,21,-1
 128 0 l 1,22,-1
 128 -64 l 1,23,-1
 64 -64 l 1,0,-1
EndSplineSet
Validated: 1
EndChar

StartChar: asciitilde
Encoding: 126 126 97
Width: 384
Flags: W
LayerCount: 2
Fore
SplineSet
192 128 m 1,0,-1
 192 192 l 1,1,-1
 256 192 l 1,2,-1
 256 128 l 1,3,-1
 192 128 l 1,0,-1
0 192 m 1,4,-1
 0 256 l 1,5,-1
 64 256 l 1,6,-1
 64 192 l 1,7,-1
 0 192 l 1,4,-1
256 192 m 1,8,-1
 256 256 l 1,9,-1
 320 256 l 1,10,-1
 320 192 l 1,11,-1
 256 192 l 1,8,-1
192 192 m 1,12,-1
 128 192 l 1,13,-1
 128 256 l 1,14,-1
 192 256 l 1,15,-1
 192 192 l 1,12,-1
128 256 m 1,16,-1
 64 256 l 1,17,-1
 64 320 l 1,18,-1
 128 320 l 1,19,-1
 128 256 l 1,16,-1
EndSplineSet
Validated: 5
EndChar

StartChar: Euro
Encoding: 8364 8364 99
Width: 384
Flags: W
LayerCount: 2
Fore
SplineSet
256 64 m 1,0,-1
 320 64 l 1,1,-1
 320 0 l 1,2,-1
 256 0 l 1,3,-1
 192 0 l 1,4,-1
 128 0 l 1,5,-1
 128 64 l 1,6,-1
 192 64 l 1,7,-1
 256 64 l 1,0,-1
128 64 m 1,8,-1
 64 64 l 1,9,-1
 64 128 l 1,10,-1
 0 128 l 1,11,-1
 0 192 l 1,12,-1
 64 192 l 1,13,-1
 64 256 l 1,14,-1
 0 256 l 1,15,-1
 0 320 l 1,16,-1
 64 320 l 1,17,-1
 64 384 l 1,18,-1
 128 384 l 1,19,-1
 128 320 l 1,20,-1
 192 320 l 1,21,-1
 256 320 l 1,22,-1
 256 256 l 1,23,-1
 192 256 l 1,24,-1
 128 256 l 1,25,-1
 128 192 l 1,26,-1
 192 192 l 1,27,-1
 256 192 l 1,28,-1
 256 128 l 1,29,-1
 192 128 l 1,30,-1
 128 128 l 1,31,-1
 128 64 l 1,8,-1
256 448 m 1,32,-1
 320 448 l 1,33,-1
 320 384 l 1,34,-1
 256 384 l 1,35,-1
 192 384 l 1,36,-1
 128 384 l 1,37,-1
 128 448 l 1,38,-1
 192 448 l 1,39,-1
 256 448 l 1,32,-1
EndSplineSet
Validated: 5
EndChar

